<svg width="750" height="500" viewBox="0 0 750 500" fill="none" xmlns="http://www.w3.org/2000/svg">
<path d="M467 443.86C469.409 442.509 472.115 441.779 474.876 441.734C477.638 441.689 480.367 442.331 482.818 443.602C485.27 444.873 487.366 446.734 488.92 449.017C490.474 451.3 491.436 453.933 491.72 456.68C481.62 456.68 471.72 454.33 467 443.86Z" fill="#EBEBEB"/>
<path d="M478.758 433.51C482.154 434.625 485.774 434.877 489.292 434.245C492.81 433.613 496.116 432.115 498.911 429.887C501.706 427.659 503.903 424.771 505.305 421.483C506.706 418.194 507.267 414.609 506.938 411.05C494.108 413.57 482.068 419.05 478.758 433.51Z" fill="#EBEBEB"/>
<path d="M434.789 450.599C434.991 450.498 435.202 450.414 435.419 450.349L437.269 449.729C438.869 449.209 441.189 448.449 444.039 447.459C449.749 445.459 457.579 442.619 466.039 438.949C470.249 437.099 474.209 435.219 477.769 433.419C481.329 431.619 484.439 429.839 487.019 428.269C489.05 427.049 491.01 425.713 492.889 424.269C494.209 423.269 494.889 422.559 494.889 422.599C494.758 422.782 494.607 422.95 494.439 423.099C493.987 423.569 493.51 424.013 493.009 424.429C491.169 425.955 489.228 427.355 487.199 428.619C484.649 430.239 481.519 432.019 477.979 433.879C474.439 435.739 470.459 437.609 466.229 439.469C457.779 443.149 449.909 445.969 444.169 447.849C441.299 448.799 438.959 449.499 437.339 449.959L435.469 450.489C435.248 450.555 435.019 450.592 434.789 450.599Z" fill="#E0E0E0"/>
<path d="M479.999 449.74C479.999 449.82 478.779 449 476.769 447.91C474.143 446.501 471.37 445.387 468.499 444.59C465.619 443.808 462.66 443.355 459.679 443.24C457.399 443.15 455.969 443.24 455.969 443.16C456.294 443.064 456.63 443.01 456.969 443C457.875 442.903 458.787 442.86 459.699 442.87C465.767 442.896 471.721 444.524 476.959 447.59C477.748 448.047 478.509 448.551 479.239 449.1C479.522 449.275 479.778 449.49 479.999 449.74Z" fill="#E0E0E0"/>
<path d="M241.728 404.779C240.506 408.039 240.113 411.551 240.584 415C241.056 418.449 242.378 421.727 244.43 424.539C246.483 427.35 249.203 429.607 252.345 431.107C255.486 432.606 258.952 433.301 262.428 433.129C260.508 420.549 255.668 408.589 241.728 404.779Z" fill="#EBEBEB"/>
<path d="M239.759 398.6C239.839 398.6 240.179 399.98 240.909 402.17C241.858 405.025 243.045 407.794 244.459 410.45C245.892 413.094 247.541 415.616 249.389 417.99C250.819 419.81 251.789 420.87 251.729 420.93C251.448 420.74 251.192 420.515 250.969 420.26C250.499 419.8 249.859 419.11 249.109 418.26C245.176 413.603 242.263 408.172 240.559 402.32C240.239 401.2 240.009 400.32 239.899 399.64C239.796 399.303 239.749 398.952 239.759 398.6Z" fill="#E0E0E0"/>
<path d="M41.8874 152.439C39.9885 157.493 39.3772 162.94 40.1084 168.288C40.8397 173.637 42.8906 178.72 46.0762 183.078C49.2619 187.436 53.4821 190.933 58.3565 193.254C63.2308 195.574 68.606 196.645 73.9974 196.369C70.9974 176.869 63.5274 158.369 41.9274 152.439" fill="#EBEBEB"/>
<path d="M38.8281 142.88C39.0313 143.361 39.1887 143.86 39.2981 144.37C39.5581 145.37 39.9681 146.73 40.5181 148.44C41.969 152.877 43.8026 157.18 45.9981 161.3C48.2105 165.417 50.7804 169.332 53.6781 173C54.7981 174.4 55.6781 175.52 56.3881 176.27C56.7502 176.649 57.0844 177.053 57.3881 177.48C56.9759 177.159 56.5943 176.801 56.2481 176.41C55.5381 175.69 54.5581 174.61 53.4081 173.23C47.3693 165.99 42.8679 157.596 40.1781 148.56C39.6681 146.84 39.3081 145.42 39.1081 144.44C38.9781 143.927 38.8845 143.406 38.8281 142.88Z" fill="#E0E0E0"/>
<path d="M75.6769 351.479C72.9631 353.663 70.8349 356.486 69.4839 359.697C68.133 362.907 67.6017 366.403 67.9379 369.87C68.2742 373.336 69.4674 376.665 71.4101 379.556C73.3529 382.446 75.9841 384.809 79.0669 386.429C83.8169 374.619 85.7369 361.869 75.6769 351.479Z" fill="#EBEBEB"/>
<path d="M77.1165 345.16C77.1965 345.16 76.7865 346.57 76.2965 348.82C75.0018 354.711 74.748 360.782 75.5465 366.76C75.8465 369.05 76.1465 370.46 76.0565 370.48C75.9132 370.161 75.8091 369.825 75.7465 369.48C75.5765 368.85 75.3765 367.93 75.1765 366.79C74.1744 360.776 74.4332 354.619 75.9365 348.71C76.2265 347.58 76.5065 346.71 76.7265 346.07C76.8212 345.753 76.952 345.448 77.1165 345.16Z" fill="#E0E0E0"/>
<path d="M261.258 98.6195C264.375 100.171 267.828 100.924 271.308 100.809C274.788 100.695 278.185 99.7168 281.193 97.9633C284.201 96.2098 286.726 93.7359 288.541 90.7642C290.355 87.7926 291.402 84.4163 291.588 80.9395C278.868 81.5495 266.488 85.1395 261.258 98.6195Z" fill="#EBEBEB"/>
<path d="M254.906 99.9998C254.906 99.9198 256.326 99.7198 258.576 99.2198C264.467 97.9327 270.088 95.6282 275.186 92.4098C277.186 91.1698 278.296 90.3198 278.346 90.4098C278.135 90.6748 277.885 90.9072 277.606 91.0998C277.106 91.5198 276.346 92.0998 275.386 92.7398C270.349 96.1696 264.65 98.5095 258.656 99.6098C257.506 99.8198 256.576 99.9398 255.926 99.9998C255.588 100.046 255.245 100.046 254.906 99.9998Z" fill="#E0E0E0"/>
<path d="M235.339 96.8096C239.829 95.8461 244.008 93.7812 247.501 90.801C250.994 87.8207 253.691 84.0186 255.349 79.7368C257.008 75.4551 257.575 70.8282 257.001 66.2726C256.427 61.717 254.728 57.3758 252.059 53.6396C239.459 64.7296 229.639 78.6396 235.339 96.8096Z" fill="#EBEBEB"/>
<path d="M229.887 103.389C230.135 103.03 230.416 102.695 230.727 102.389C231.297 101.759 232.107 100.819 233.067 99.6393C238.109 93.479 242.014 86.4695 244.597 78.9393C245.097 77.4993 245.467 76.3193 245.707 75.4993C245.807 75.0658 245.951 74.6436 246.137 74.2393C246.106 74.6835 246.026 75.123 245.897 75.5493C245.727 76.3893 245.397 77.5493 244.897 79.0493C242.498 86.709 238.554 93.7951 233.307 99.8693C232.307 101.029 231.447 101.939 230.827 102.529C230.544 102.848 230.229 103.136 229.887 103.389Z" fill="#E0E0E0"/>
<path d="M317.367 439.37C318.316 441.238 319.713 442.842 321.434 444.036C323.156 445.231 325.147 445.979 327.228 446.214C329.31 446.449 331.418 446.164 333.362 445.383C335.307 444.602 337.026 443.35 338.367 441.74C332.007 437.46 324.727 434.74 317.367 439.37Z" fill="#EBEBEB"/>
<path d="M313.828 437.729C316.168 438.766 318.573 439.648 321.028 440.369C323.526 440.921 326.058 441.302 328.608 441.509C327.863 441.673 327.097 441.721 326.338 441.649C322.657 441.524 319.046 440.6 315.758 438.939C315.058 438.635 314.407 438.227 313.828 437.729Z" fill="#E0E0E0"/>
<path d="M410.066 80.3293C411.357 81.9827 413.038 83.2891 414.96 84.1306C416.881 84.9722 418.981 85.3224 421.071 85.1498C423.162 84.9772 425.176 84.2871 426.933 83.1418C428.69 81.9965 430.135 80.432 431.136 78.5893C424.066 75.5893 416.406 74.3593 410.066 80.3293Z" fill="#EBEBEB"/>
<path d="M406.277 79.4092C411.246 80.7097 416.425 80.9988 421.507 80.2592C420.806 80.555 420.064 80.747 419.307 80.8292C415.67 81.4217 411.946 81.2135 408.397 80.2192C407.654 80.0578 406.939 79.7847 406.277 79.4092Z" fill="#E0E0E0"/>
<path d="M650.309 111.089C653.663 112.013 657.194 112.088 660.585 111.308C663.976 110.529 667.12 108.919 669.735 106.624C672.349 104.328 674.353 101.419 675.565 98.1579C676.777 94.8966 677.159 91.3853 676.679 87.9395C664.319 90.9395 652.859 96.8694 650.309 111.089Z" fill="#EBEBEB"/>
<path d="M644.328 113.61C644.328 113.53 645.658 113.06 647.778 112.14C653.313 109.751 658.39 106.414 662.778 102.28C664.468 100.69 665.428 99.6299 665.498 99.6899C665.334 99.9851 665.133 100.257 664.898 100.5C664.488 101.01 663.898 101.71 663.038 102.5C658.747 106.828 653.601 110.213 647.928 112.44C646.848 112.86 645.928 113.17 645.328 113.34C645.007 113.471 644.671 113.562 644.328 113.61Z" fill="#E0E0E0"/>
<path d="M674 415.88C679.9 414.514 685.368 411.703 689.913 407.7C694.458 403.696 697.937 398.627 700.037 392.946C702.138 387.265 702.793 381.152 701.945 375.155C701.097 369.158 698.772 363.466 695.18 358.59C678.75 373.48 666.09 392 674 415.88Z" fill="#EBEBEB"/>
<path d="M666.906 424.68C667.247 424.2 667.621 423.746 668.026 423.32C668.776 422.48 669.826 421.23 671.076 419.66C672.326 418.09 673.766 416.16 675.256 413.96C676.746 411.76 678.256 409.25 679.726 406.55C681.196 403.85 682.396 401.19 683.426 398.73C684.456 396.27 685.266 394.02 685.876 392.1C686.486 390.18 686.946 388.62 687.236 387.53C687.362 386.956 687.536 386.394 687.756 385.85C687.692 386.433 687.585 387.011 687.436 387.58C687.206 388.69 686.796 390.27 686.226 392.21C685.656 394.15 684.866 396.43 683.876 398.92C682.886 401.41 681.636 404.07 680.186 406.8C678.802 409.351 677.29 411.83 675.656 414.23C674.126 416.43 672.656 418.34 671.366 419.89C670.076 421.44 668.966 422.66 668.176 423.46C667.786 423.899 667.361 424.307 666.906 424.68Z" fill="#E0E0E0"/>
<path d="M538.222 289.8C531.912 254.55 501.642 223.8 465.952 220.86C446.502 219.28 426.952 225.41 407.582 223.07C391.165 221.02 376.058 213.056 365.092 200.67C349.092 182.47 343.682 156.58 326.742 139.26C303.402 115.37 262.672 115 234.272 132.57C205.872 150.14 188.702 181.85 180.842 214.3L180.532 224.17C178.822 257.83 187.682 297 207.212 327C227.002 357.4 240.012 370 276.072 391.81C306.692 410.37 366.652 418.53 402.452 419.39C438.252 420.25 475.022 409.59 501.952 385.97C528.882 362.35 544.542 325.05 538.222 289.8Z" fill="#FD6038"/>
<g opacity="0.8">
<path d="M538.222 289.8C531.912 254.55 501.642 223.8 465.952 220.86C446.502 219.28 426.952 225.41 407.582 223.07C391.165 221.02 376.058 213.056 365.092 200.67C349.092 182.47 343.682 156.58 326.742 139.26C303.402 115.37 262.672 115 234.272 132.57C205.872 150.14 188.702 181.85 180.842 214.3L180.532 224.17C178.822 257.83 187.682 297 207.212 327C227.002 357.4 240.012 370 276.072 391.81C306.692 410.37 366.652 418.53 402.452 419.39C438.252 420.25 475.022 409.59 501.952 385.97C528.882 362.35 544.542 325.05 538.222 289.8Z" fill="white"/>
</g>
<path d="M573.316 415.655C574.684 406.227 568.151 397.474 558.723 396.106C549.295 394.737 540.542 401.27 539.174 410.698C537.805 420.127 544.338 428.879 553.766 430.248C563.194 431.616 571.947 425.083 573.316 415.655Z" fill="#FD6038"/>
<path opacity="0.8" d="M573.316 415.655C574.684 406.227 568.151 397.474 558.723 396.106C549.295 394.737 540.542 401.27 539.174 410.698C537.805 420.127 544.338 428.879 553.766 430.248C563.194 431.616 571.947 425.083 573.316 415.655Z" fill="white"/>
<path d="M435.159 280.45C435.485 314.89 427.979 341.223 412.639 359.45C397.299 377.676 376.299 386.91 349.639 387.15C322.839 387.41 301.535 378.583 285.729 360.67C269.922 342.756 261.849 316.583 261.509 282.15L260.929 221.59C260.595 187.283 268.102 160.95 283.449 142.59C298.795 124.23 319.865 114.936 346.659 114.71C373.325 114.45 394.569 123.34 410.389 141.38C426.209 159.42 434.279 185.59 434.599 219.89L435.159 280.45ZM390.329 213.53C390.109 191.843 386.332 175.83 378.999 165.49C371.665 155.15 360.999 150.043 346.999 150.17C333.045 150.303 322.515 155.613 315.409 166.1C308.302 176.586 304.832 192.67 304.999 214.35L305.699 287.94C305.905 309.74 309.729 325.843 317.169 336.25C324.609 346.656 335.299 351.793 349.239 351.66C363.179 351.526 373.675 346.216 380.729 335.73C387.782 325.243 391.205 309.04 390.999 287.12L390.329 213.53Z" fill="#FD6038"/>
<g opacity="0.4">
<path d="M435.159 280.45C435.485 314.89 427.979 341.223 412.639 359.45C397.299 377.676 376.299 386.91 349.639 387.15C322.839 387.41 301.535 378.583 285.729 360.67C269.922 342.756 261.849 316.583 261.509 282.15L260.929 221.59C260.595 187.283 268.102 160.95 283.449 142.59C298.795 124.23 319.865 114.936 346.659 114.71C373.325 114.45 394.569 123.34 410.389 141.38C426.209 159.42 434.279 185.59 434.599 219.89L435.159 280.45ZM390.329 213.53C390.109 191.843 386.332 175.83 378.999 165.49C371.665 155.15 360.999 150.043 346.999 150.17C333.045 150.303 322.515 155.613 315.409 166.1C308.302 176.586 304.832 192.67 304.999 214.35L305.699 287.94C305.905 309.74 309.729 325.843 317.169 336.25C324.609 346.656 335.299 351.793 349.239 351.66C363.179 351.526 373.675 346.216 380.729 335.73C387.782 325.243 391.205 309.04 390.999 287.12L390.329 213.53Z" fill="black"/>
</g>
<path d="M460.621 280.21C460.954 314.643 453.447 340.976 438.101 359.21C422.754 377.443 401.754 386.676 375.101 386.91C348.301 387.17 326.997 378.34 311.191 360.42C295.384 342.5 287.321 316.32 287.001 281.88L286.421 221.32C286.087 187.013 293.594 160.68 308.941 142.32C324.287 123.96 345.357 114.663 372.151 114.43C398.817 114.183 420.061 123.073 435.881 141.1C451.701 159.126 459.741 185.31 460.001 219.65L460.621 280.21ZM415.791 213.29C415.577 191.61 411.784 175.61 404.411 165.29C397.037 154.97 386.371 149.863 372.411 149.97C358.457 150.11 347.927 155.42 340.821 165.9C333.714 176.38 330.261 192.466 330.461 214.16L331.171 287.74C331.384 309.546 335.207 325.653 342.641 336.06C350.074 346.466 360.764 351.603 374.711 351.47C388.651 351.33 399.147 346.02 406.201 335.54C413.254 325.06 416.674 308.853 416.461 286.92L415.791 213.29Z" fill="#FD6038"/>
<path d="M286.55 224.92C286.6 225.05 280.69 227.4 273.35 230.16C266.01 232.92 260 235 260 234.91C260 234.82 265.86 232.43 273.2 229.67C280.54 226.91 286.5 224.78 286.55 224.92Z" fill="#FD6038"/>
<path d="M288 248.85C288.05 248.98 282.14 251.33 274.79 254.09C267.44 256.85 261.46 258.97 261.41 258.84C261.36 258.71 267.27 256.36 274.61 253.6C281.95 250.84 288 248.71 288 248.85Z" fill="#FD6038"/>
<path d="M289.49 272.78C289.54 272.91 283.63 275.26 276.28 278.02C268.93 280.78 263 282.9 262.9 282.77C262.8 282.64 268.76 280.29 276.1 277.53C283.44 274.77 289.44 272.64 289.49 272.78Z" fill="#FD6038"/>
<path d="M290.999 296.71C291.049 296.84 285.139 299.19 277.789 301.95C270.439 304.71 264.449 306.83 264.399 306.7C264.349 306.57 270.269 304.22 277.609 301.46C284.949 298.7 290.909 296.57 290.999 296.71Z" fill="#FD6038"/>
<path d="M292.431 320.64C292.143 320.825 291.834 320.976 291.511 321.09C290.911 321.35 290.031 321.71 288.951 322.14C286.771 323.01 283.761 324.14 280.421 325.43C277.081 326.72 274.041 327.79 271.831 328.57C270.731 328.96 269.831 329.27 269.211 329.47C268.892 329.604 268.555 329.691 268.211 329.73C268.498 329.542 268.807 329.391 269.131 329.28C269.731 329.02 270.601 328.66 271.691 328.28C273.861 327.41 276.881 326.28 280.221 324.99C283.561 323.7 286.601 322.62 288.811 321.85C289.911 321.46 290.811 321.15 291.431 320.95C291.747 320.796 292.084 320.691 292.431 320.64Z" fill="#FD6038"/>
<path d="M299.262 342.53C298.297 343.05 297.294 343.494 296.262 343.86C294.362 344.62 291.732 345.64 288.822 346.74C285.912 347.84 283.252 348.8 281.332 349.47C280.307 349.887 279.25 350.221 278.172 350.47C279.135 349.948 280.138 349.503 281.172 349.14C283.062 348.37 285.692 347.35 288.612 346.26C291.532 345.17 294.172 344.2 296.102 343.53C297.125 343.108 298.182 342.774 299.262 342.53Z" fill="#FD6038"/>
<path d="M313.892 362.609C313.031 363.088 312.131 363.493 311.202 363.819C309.512 364.499 307.202 365.409 304.582 366.389C301.962 367.369 299.582 368.219 297.902 368.809C296.989 369.179 296.045 369.47 295.082 369.679C295.94 369.196 296.841 368.791 297.772 368.469C299.452 367.789 301.772 366.879 304.392 365.899C307.012 364.919 309.392 364.069 311.072 363.469C311.985 363.099 312.928 362.812 313.892 362.609Z" fill="#FD6038"/>
<path d="M338.201 375.779C337.338 376.252 336.438 376.653 335.511 376.979C333.821 377.669 331.511 378.579 328.891 379.549C326.271 380.519 323.891 381.379 322.211 381.979C321.298 382.349 320.354 382.637 319.391 382.839C320.251 382.361 321.151 381.956 322.081 381.629C323.771 380.949 326.081 380.039 328.701 379.059C331.321 378.079 333.701 377.229 335.381 376.639C336.291 376.264 337.235 375.976 338.201 375.779Z" fill="#FD6038"/>
<path d="M411.519 324.71C411.579 324.84 403.989 328.38 394.569 332.62C385.149 336.86 377.459 340.18 377.399 340.05C377.339 339.92 384.929 336.38 394.399 332.14C403.869 327.9 411.459 324.58 411.519 324.71Z" fill="#FD6038"/>
<path d="M416.499 304.21C416.559 304.34 410.289 307.28 402.499 310.78C394.709 314.28 388.349 317.02 388.289 316.89C388.229 316.76 394.489 313.81 402.289 310.31C410.089 306.81 416.439 304.08 416.499 304.21Z" fill="#FD6038"/>
<path d="M418.789 281.18C418.849 281.31 412.579 284.25 404.789 287.75C396.999 291.25 390.639 293.99 390.579 293.86C390.519 293.73 396.779 290.78 404.579 287.28C412.379 283.78 418.729 281 418.789 281.18Z" fill="#FD6038"/>
<path d="M421.082 258.14C421.142 258.27 414.882 261.22 407.082 264.72C399.282 268.22 392.932 270.95 392.872 270.82C392.812 270.69 399.082 267.75 406.872 264.25C414.662 260.75 421.002 258 421.082 258.14Z" fill="#FD6038"/>
<path d="M423.378 235.11C423.428 235.24 417.168 238.19 409.378 241.69C401.588 245.19 395.228 247.92 395.168 247.79C395.108 247.66 401.378 244.72 409.168 241.21C416.958 237.7 423.318 235 423.378 235.11Z" fill="#FD6038"/>
<path d="M418.789 214.6C418.849 214.73 412.579 217.68 404.789 221.18C396.999 224.68 390.639 227.41 390.579 227.28C390.519 227.15 396.779 224.2 404.579 220.7C412.379 217.2 418.729 214.47 418.789 214.6Z" fill="#FD6038"/>
<path d="M418.789 192.52C418.849 192.65 412.579 195.6 404.789 199.1C396.999 202.6 390.639 205.33 390.579 205.2C390.519 205.07 396.779 202.12 404.579 198.62C412.379 195.12 418.729 192.39 418.789 192.52Z" fill="#FD6038"/>
<path d="M416.499 171.73C416.559 171.86 410.289 174.8 402.499 178.3C394.709 181.8 388.349 184.54 388.289 184.41C388.229 184.28 394.489 181.33 402.289 177.83C410.089 174.33 416.439 171.6 416.499 171.73Z" fill="#FD6038"/>
<path d="M396.75 157.24C394.004 158.761 391.176 160.13 388.28 161.34C385.452 162.705 382.551 163.914 379.59 164.96C382.332 163.432 385.16 162.063 388.06 160.86C390.888 159.495 393.789 158.286 396.75 157.24Z" fill="#FD6038"/>
<path d="M386.191 148.37C383.443 149.883 380.615 151.248 377.721 152.46C374.893 153.825 371.992 155.034 369.031 156.08C371.778 154.566 374.605 153.204 377.501 152C380.329 150.631 383.23 149.42 386.191 148.37Z" fill="#FD6038"/>
<path d="M287.68 195.91C287.73 196.04 281.82 198.39 274.48 201.15C267.14 203.91 261.14 206.04 261.09 205.9C261.04 205.76 266.95 203.42 274.3 200.66C281.65 197.9 287.63 195.78 287.68 195.91Z" fill="#FD6038"/>
<path d="M295 166.069C295.06 166.199 288.64 168.729 280.69 171.729C272.74 174.729 266.23 177.029 266.18 176.899C266.13 176.769 272.54 174.229 280.5 171.239C288.46 168.249 295 165.929 295 166.069Z" fill="#FD6038"/>
<path d="M314.27 136.53C314.32 136.67 306.19 139.84 296.11 143.63C286.03 147.42 277.82 150.38 277.77 150.25C277.72 150.12 285.85 146.93 295.93 143.14C306.01 139.35 314.22 136.4 314.27 136.53Z" fill="#FD6038"/>
<path d="M456.309 325L455.889 324.86L454.689 324.39C454.159 324.2 453.469 324.05 452.689 323.83C451.755 323.648 450.809 323.531 449.859 323.48C445.589 323.21 439.189 324.76 432.999 329.4C429.648 331.939 426.646 334.907 424.069 338.23C421.199 341.74 418.389 345.71 415.199 349.71C411.953 354.001 408.068 357.768 403.679 360.88C398.874 364.121 393.445 366.321 387.739 367.34C382.033 368.367 376.174 368.173 370.549 366.77C365.357 365.408 360.312 363.536 355.489 361.18C350.839 359.03 346.489 356.84 342.349 355.03C338.499 353.329 334.503 351.98 330.409 351C327.034 350.202 323.577 349.806 320.109 349.82C317.492 349.84 314.888 350.193 312.359 350.87C310.769 351.336 309.223 351.942 307.739 352.68L306.599 353.28C306.473 353.358 306.339 353.421 306.199 353.47L306.569 353.24L307.689 352.59C309.16 351.805 310.704 351.165 312.299 350.68C314.839 349.963 317.461 349.577 320.099 349.53C323.594 349.485 327.082 349.857 330.489 350.64C334.602 351.608 338.618 352.947 342.489 354.64C346.669 356.44 351.019 358.64 355.659 360.76C360.464 363.091 365.489 364.94 370.659 366.28C376.222 367.669 382.017 367.86 387.659 366.84C393.294 365.832 398.658 363.662 403.409 360.47C407.765 357.393 411.624 353.667 414.849 349.42C418.039 345.42 420.849 341.48 423.759 337.96C426.358 334.628 429.384 331.652 432.759 329.11C439.039 324.47 445.529 322.95 449.849 323.29C450.81 323.353 451.766 323.483 452.709 323.68C453.509 323.93 454.199 324.09 454.709 324.3L455.899 324.82L456.309 325Z" fill="white"/>
<path d="M462.619 258.3C462.619 258.35 461.909 258.44 460.669 258.85C458.945 259.481 457.319 260.353 455.839 261.44C453.939 262.77 451.839 264.63 449.429 266.55C446.77 268.624 443.889 270.399 440.839 271.84C435.305 274.493 429.306 276.042 423.179 276.4C422.009 276.5 420.939 276.47 420.009 276.49C419.079 276.51 418.279 276.43 417.629 276.38L416.119 276.23C415.946 276.227 415.773 276.197 415.609 276.14C415.782 276.116 415.957 276.116 416.129 276.14L417.639 276.19H420.009C420.939 276.14 422.009 276.19 423.149 276.03C429.211 275.562 435.133 273.979 440.619 271.36C443.633 269.928 446.488 268.185 449.139 266.16C451.569 264.28 453.679 262.43 455.639 261.16C457.167 260.078 458.854 259.241 460.639 258.68C461.125 258.541 461.62 258.434 462.119 258.36C462.282 258.314 462.451 258.294 462.619 258.3Z" fill="white"/>
<path d="M331.998 281.469C331.816 281.461 331.635 281.434 331.458 281.389C331.098 281.309 330.568 281.229 329.898 281.039C328.02 280.484 326.219 279.694 324.538 278.689C322.072 277.176 319.732 275.467 317.538 273.579C315.028 271.499 312.348 269.129 309.278 267.009C306.412 264.984 303.194 263.509 299.788 262.659C295.109 261.508 290.218 261.528 285.548 262.719C284.218 263.059 283.498 263.319 283.488 263.269C283.643 263.168 283.811 263.091 283.988 263.039C284.328 262.909 284.828 262.709 285.498 262.519C287.371 261.971 289.3 261.636 291.248 261.519C294.151 261.305 297.069 261.545 299.898 262.229C303.369 263.071 306.65 264.561 309.568 266.619C312.678 268.769 315.358 271.159 317.848 273.249C320.009 275.143 322.309 276.871 324.728 278.419C326.374 279.435 328.129 280.263 329.958 280.889C330.648 281.047 331.329 281.24 331.998 281.469Z" fill="white"/>
<path d="M332.17 186.94C331.631 187.19 331.072 187.394 330.5 187.55C329.844 187.781 329.176 187.978 328.5 188.14C327.71 188.34 326.82 188.61 325.81 188.79C324.8 188.97 323.71 189.22 322.51 189.37C321.31 189.52 320.04 189.66 318.69 189.78C315.758 189.966 312.816 189.929 309.89 189.67C306.965 189.377 304.067 188.866 301.22 188.14C299.92 187.77 298.67 187.43 297.54 187.02C296.41 186.61 295.35 186.23 294.41 185.84C293.47 185.45 292.63 185.04 291.89 184.7C291.15 184.36 290.54 184.03 290.04 183.75C289.51 183.486 289.002 183.182 288.52 182.84C289.073 183.044 289.611 183.288 290.13 183.57C290.64 183.82 291.27 184.13 292.01 184.44C292.75 184.75 293.59 185.15 294.55 185.49C295.51 185.83 296.55 186.26 297.68 186.61C298.81 186.96 300.04 187.32 301.34 187.67C306.995 189.096 312.837 189.646 318.66 189.3C320 189.19 321.27 189.12 322.46 188.94C323.65 188.76 324.74 188.61 325.74 188.43C326.74 188.25 327.63 188.03 328.42 187.86C329.21 187.69 329.89 187.51 330.42 187.36C330.992 187.178 331.577 187.038 332.17 186.94Z" fill="white"/>
<path d="M456.938 186.689C456.791 186.635 456.65 186.565 456.518 186.479L455.358 185.809C454.757 185.443 454.136 185.109 453.498 184.809C452.677 184.369 451.832 183.971 450.968 183.619L449.468 182.989C448.938 182.779 448.378 182.619 447.798 182.419C446.658 181.999 445.388 181.709 444.058 181.359C438.245 180.037 432.214 179.985 426.378 181.209C425.109 181.478 423.854 181.812 422.618 182.209C422.038 182.399 421.468 182.549 420.938 182.749L419.428 183.349C418.559 183.689 417.708 184.073 416.878 184.499C416.234 184.792 415.61 185.126 415.008 185.499L413.828 186.149C413.558 186.289 413.408 186.359 413.398 186.339C413.512 186.23 413.64 186.136 413.778 186.059L414.898 185.319C415.491 184.925 416.109 184.571 416.748 184.259C417.57 183.799 418.418 183.388 419.288 183.029L420.798 182.389C421.328 182.179 421.908 182.019 422.488 181.819C423.732 181.4 424.997 181.05 426.278 180.769C432.178 179.476 438.293 179.53 444.168 180.929C445.508 181.289 446.788 181.599 447.938 182.039C448.518 182.249 449.088 182.419 449.608 182.649L451.118 183.309C451.979 183.69 452.82 184.114 453.638 184.579C454.268 184.906 454.876 185.274 455.458 185.679L456.578 186.439C456.828 186.569 456.998 186.669 456.938 186.689Z" fill="white"/>
<path d="M395.799 118.76C395.574 118.93 395.333 119.077 395.079 119.2L392.999 120.35C391.149 121.35 388.469 122.74 385.109 124.42C378.409 127.73 368.999 132.26 357.859 135.08C352.622 136.396 347.257 137.141 341.859 137.3C337.454 137.429 333.048 137.049 328.729 136.17C325.818 135.585 322.971 134.718 320.229 133.58C319.229 133.2 318.539 132.8 318.039 132.58C317.78 132.468 317.529 132.338 317.289 132.19C317.563 132.261 317.827 132.361 318.079 132.49C318.599 132.68 319.319 133.05 320.309 133.4C323.061 134.46 325.902 135.27 328.799 135.82C333.098 136.641 337.475 136.976 341.849 136.82C347.204 136.634 352.524 135.88 357.719 134.57C368.789 131.77 378.209 127.32 384.939 124.09L392.939 120.16L394.999 119.1C395.258 118.969 395.525 118.856 395.799 118.76Z" fill="white"/>
<path d="M195.06 293L228.49 294.46L226.94 329.89L193.51 328.43L190.94 387.3L146.94 385.38L149.51 326.51L36 321.55L36.09 294.55L157.09 120.75L202.51 122.75L195.06 293ZM80.06 288L151.06 291.1L155.74 183.72L154.67 183.31L150.67 190.96L80.06 288Z" fill="#FD6038"/>
<g opacity="0.4">
<path d="M195.06 293L228.49 294.46L226.94 329.89L193.51 328.43L190.94 387.3L146.94 385.38L149.51 326.51L36 321.55L36.09 294.55L157.09 120.75L202.51 122.75L195.06 293ZM80.06 288L151.06 291.1L155.74 183.72L154.67 183.31L150.67 190.96L80.06 288Z" fill="black"/>
</g>
<path d="M223.001 294.22L256.431 295.68L254.881 331.11L221.451 329.65L218.881 388.52L174.881 386.6L177.451 327.73L63.8906 322.73L63.9806 295.73L185.001 122L230.431 124L223.001 294.22ZM108.001 289.22L179.051 292.32L183.731 184.94L182.661 184.53L178.661 192.18L108.001 289.22Z" fill="#FD6038"/>
<path d="M64.5902 300.92C64.2543 301.163 63.892 301.368 63.5102 301.53C62.8002 301.89 61.7602 302.39 60.5102 302.99C57.9402 304.2 54.3502 305.81 50.3402 307.51C46.3302 309.21 42.6802 310.65 40.0202 311.66C38.6902 312.16 37.6002 312.55 36.8502 312.81C36.4663 312.969 36.0677 313.089 35.6602 313.17C36.011 312.944 36.3868 312.759 36.7802 312.62L39.8802 311.31L50.1002 307L60.3202 302.63L63.4302 301.31C63.8025 301.141 64.1912 301.01 64.5902 300.92Z" fill="#FD6038"/>
<path d="M80.8691 271C80.3844 271.298 79.8799 271.562 79.3591 271.79C78.3591 272.27 76.9391 272.95 75.1591 273.79C71.5891 275.41 66.6391 277.58 61.1591 279.91C55.6791 282.24 50.6091 284.23 46.9991 285.65C45.1791 286.37 43.6991 286.93 42.6591 287.3C42.1364 287.523 41.5941 287.698 41.0391 287.82C41.5385 287.547 42.0565 287.31 42.5891 287.11L46.8591 285.31L60.9691 279.38L75.0491 273.38L79.3191 271.57C79.8168 271.332 80.3358 271.141 80.8691 271Z" fill="#FD6038"/>
<path d="M100.739 244.27C100.236 244.58 99.7072 244.848 99.1589 245.07C98.1589 245.55 96.6289 246.23 94.7689 247.07C91.0389 248.7 85.8689 250.87 80.1289 253.2C74.3889 255.53 69.1289 257.56 65.3389 258.99C63.4389 259.7 61.8889 260.26 60.8189 260.63C60.2725 260.854 59.7069 261.028 59.1289 261.15C59.6529 260.878 60.1941 260.641 60.7489 260.44L65.2089 258.64L79.9289 252.71L94.6189 246.71L99.0789 244.9C99.6152 244.647 100.17 244.436 100.739 244.27Z" fill="#FD6038"/>
<path d="M180.331 275.109C179.99 275.345 179.625 275.543 179.241 275.699C178.531 276.049 177.491 276.529 176.191 277.109C173.611 278.279 170.011 279.829 166.001 281.459C161.991 283.089 158.321 284.459 155.661 285.459C154.321 285.939 153.241 286.319 152.491 286.569C152.105 286.717 151.707 286.827 151.301 286.899C151.649 286.683 152.022 286.509 152.411 286.379L155.531 285.119L165.811 280.999L176.051 276.799L179.161 275.529C179.534 275.347 179.927 275.206 180.331 275.109Z" fill="#FD6038"/>
<path d="M177.09 330.05C176.764 330.285 176.411 330.483 176.04 330.64C175.35 330.98 174.34 331.47 173.09 332.05C170.59 333.22 167.09 334.77 163.22 336.39C159.35 338.01 155.77 339.39 153.22 340.39C151.92 340.87 150.87 341.25 150.14 341.49C149.767 341.645 149.378 341.759 148.98 341.83C149.319 341.613 149.682 341.435 150.06 341.3L153.06 340.04L163.06 335.93L172.98 331.73L175.98 330.47C176.335 330.291 176.707 330.151 177.09 330.05Z" fill="#FD6038"/>
<path d="M176.63 349.31C176.319 349.54 175.984 349.734 175.63 349.89C174.94 350.24 173.93 350.72 172.63 351.31C170.13 352.47 166.63 354.02 162.75 355.65C158.87 357.28 155.31 358.65 152.75 359.65C151.46 360.13 150.41 360.51 149.67 360.76C149.302 360.919 148.916 361.03 148.52 361.09C148.862 360.881 149.223 360.707 149.6 360.57L152.6 359.31L162.6 355.2L172.53 351L175.53 349.74C175.877 349.551 176.246 349.407 176.63 349.31Z" fill="#FD6038"/>
<path d="M176.169 368.56C175.856 368.789 175.521 368.986 175.169 369.15C174.479 369.5 173.469 369.98 172.169 370.56C169.659 371.73 166.169 373.28 162.289 374.9C158.409 376.52 154.849 377.9 152.289 378.9C150.999 379.38 149.939 379.76 149.209 380C148.838 380.153 148.453 380.267 148.059 380.34C148.397 380.122 148.76 379.944 149.139 379.81L152.139 378.56L162.139 374.44L172.069 370.24L175.069 368.98C175.419 368.8 175.788 368.659 176.169 368.56Z" fill="#FD6038"/>
<path d="M180.851 254.77C180.507 255.001 180.142 255.198 179.761 255.36C179.051 255.71 178.011 256.19 176.761 256.77C174.181 257.94 170.581 259.49 166.571 261.12C162.561 262.75 158.891 264.12 156.231 265.12C154.891 265.6 153.811 265.98 153.061 266.22C152.677 266.372 152.278 266.486 151.871 266.56C152.217 266.337 152.59 266.159 152.981 266.03L156.101 264.77L166.381 260.66L176.621 256.46L179.731 255.2C180.088 255.017 180.464 254.873 180.851 254.77Z" fill="#FD6038"/>
<path d="M181.37 234.43C181.026 234.661 180.661 234.858 180.28 235.02C179.57 235.36 178.53 235.85 177.23 236.43C174.65 237.6 171.05 239.15 167.04 240.77C163.03 242.39 159.37 243.77 156.7 244.77C155.36 245.25 154.28 245.62 153.53 245.87C153.145 246.022 152.747 246.136 152.34 246.21C152.689 245.986 153.065 245.808 153.46 245.68L156.57 244.42L166.85 240.31L177.09 236.11L180.2 234.85C180.573 234.667 180.966 234.526 181.37 234.43Z" fill="#FD6038"/>
<path d="M181.889 214.09C181.575 214.309 181.24 214.497 180.889 214.65C180.219 214.98 179.229 215.44 177.999 216C175.529 217.12 172.109 218.61 168.289 220.15C164.469 221.69 160.969 223.02 158.429 223.93C157.159 224.38 156.129 224.74 155.429 224.93C155.062 225.079 154.68 225.186 154.289 225.25C154.625 225.039 154.984 224.868 155.359 224.74L158.359 223.54L168.149 219.63L177.909 215.63L180.909 214.43C181.222 214.28 181.551 214.166 181.889 214.09Z" fill="#FD6038"/>
<path d="M184.19 195.08C182.593 195.944 180.919 196.658 179.19 197.21C177.516 197.923 175.778 198.475 174 198.86C175.597 197.993 177.27 197.277 179 196.72C180.673 196.008 182.411 195.458 184.19 195.08Z" fill="#FD6038"/>
<path d="M120.569 216.59C120.064 216.892 119.54 217.16 118.999 217.39C117.999 217.87 116.469 218.54 114.599 219.39C110.879 221.02 105.709 223.19 99.9587 225.52C94.2087 227.85 88.9587 229.89 85.1787 231.31C83.2787 232.02 81.7288 232.58 80.6588 232.95C80.1081 233.165 79.5434 233.342 78.9688 233.48C79.4871 233.194 80.0291 232.953 80.5887 232.76L85.0488 230.97L99.7687 225L114.459 219L118.909 217.19C119.448 216.953 120.003 216.753 120.569 216.59Z" fill="#FD6038"/>
<path d="M140.409 188.899C139.905 189.21 139.377 189.478 138.829 189.699C137.829 190.179 136.299 190.859 134.439 191.699C130.719 193.319 125.539 195.499 119.799 197.819C114.059 200.139 108.799 202.189 105.019 203.609C103.109 204.329 101.569 204.889 100.489 205.259C99.9447 205.481 99.3826 205.655 98.8086 205.779C99.3272 205.504 99.8653 205.266 100.419 205.069L104.879 203.269L119.599 197.339L134.299 191.339L138.749 189.519C139.286 189.272 139.841 189.065 140.409 188.899Z" fill="#FD6038"/>
<path d="M158.741 161.22C158.233 161.523 157.706 161.791 157.161 162.02C156.161 162.5 154.631 163.17 152.771 164.02C149.051 165.65 143.871 167.82 138.131 170.15C132.391 172.48 127.131 174.52 123.351 175.94C121.451 176.65 119.901 177.21 118.831 177.58C118.28 177.794 117.715 177.972 117.141 178.11C117.659 177.824 118.201 177.583 118.761 177.39L123.221 175.6L137.941 169.67L152.631 163.67L157.081 161.86C157.614 161.598 158.17 161.384 158.741 161.22Z" fill="#FD6038"/>
<path d="M177.821 134.6C177.312 134.9 176.784 135.168 176.241 135.4C175.241 135.88 173.711 136.55 171.851 137.4C168.121 139.03 162.951 141.2 157.211 143.53C151.471 145.86 146.211 147.9 142.421 149.32C140.521 150.03 138.981 150.59 137.901 150.96C137.351 151.178 136.787 151.355 136.211 151.49C136.731 151.206 137.272 150.965 137.831 150.77L142.291 148.98L157.001 143L171.691 137L176.151 135.19C176.692 134.952 177.25 134.755 177.821 134.6Z" fill="#FD6038"/>
<path d="M228.441 175.27C228.273 175.511 228.079 175.733 227.861 175.93C227.295 176.551 226.691 177.135 226.051 177.68C223.718 179.716 221.1 181.4 218.281 182.68C214.075 184.569 209.531 185.59 204.921 185.68C202.196 185.73 199.476 185.424 196.831 184.77C194.007 184.046 191.268 183.024 188.661 181.72C183.281 179.1 178.501 176.01 173.831 173.86C169.737 171.853 165.282 170.69 160.731 170.44C157.664 170.282 154.603 170.855 151.801 172.11C151.045 172.464 150.319 172.878 149.631 173.35C149.395 173.524 149.148 173.681 148.891 173.82C149.104 173.62 149.331 173.437 149.571 173.27C150.242 172.759 150.958 172.311 151.711 171.93C154.516 170.59 157.604 169.951 160.711 170.07C165.327 170.288 169.849 171.449 174.001 173.48C178.721 175.63 183.521 178.71 188.851 181.31C191.432 182.588 194.14 183.593 196.931 184.31C199.53 184.957 202.202 185.267 204.881 185.23C212.557 185.124 219.967 182.396 225.881 177.5C226.731 176.82 227.331 176.22 227.751 175.83C227.966 175.625 228.196 175.438 228.441 175.27Z" fill="white"/>
<path d="M214.518 125.83C214.115 126.11 213.691 126.357 213.248 126.57C212.418 127.02 211.178 127.57 209.618 128.27C207.79 129.039 205.92 129.707 204.018 130.27C199.358 131.661 194.539 132.448 189.678 132.61C187.678 132.683 185.674 132.643 183.678 132.49C181.988 132.36 180.678 132.2 179.678 132.03C179.191 131.975 178.709 131.878 178.238 131.74C178.73 131.723 179.222 131.753 179.708 131.83C180.638 131.94 181.998 132.04 183.708 132.12C185.418 132.2 187.398 132.22 189.618 132.12C192.023 132.001 194.42 131.754 196.798 131.38C199.157 130.975 201.494 130.447 203.798 129.8C205.928 129.18 207.798 128.54 209.388 127.92C210.978 127.3 212.208 126.77 213.068 126.38C213.533 126.151 214.019 125.967 214.518 125.83Z" fill="white"/>
<path d="M143.52 236.89C143.19 236.585 142.889 236.25 142.62 235.89L140.26 233.07C137.626 230.005 134.828 227.084 131.88 224.32C130.279 222.802 128.519 221.46 126.63 220.32C125.085 219.396 123.394 218.74 121.63 218.38C119.993 218.087 118.317 218.087 116.68 218.38C116.68 218.38 116.79 218.32 117.01 218.25C117.335 218.142 117.67 218.065 118.01 218.02C119.238 217.814 120.492 217.814 121.72 218.02C123.542 218.337 125.293 218.977 126.89 219.91C128.831 221.054 130.633 222.42 132.26 223.98C135.23 226.75 138.003 229.724 140.56 232.88C141.56 234.09 142.3 235.1 142.8 235.8C143.078 236.137 143.319 236.502 143.52 236.89Z" fill="white"/>
<path d="M223.29 267.099C223.29 267.099 223.16 267.219 222.9 267.399C222.64 267.579 222.25 267.869 221.71 268.169C220.209 269.05 218.633 269.796 217 270.399C211.592 272.442 205.717 272.91 200.053 271.751C194.39 270.592 189.171 267.852 185 263.849C183.736 262.662 182.584 261.36 181.56 259.959C181.19 259.469 180.95 259.059 180.77 258.789C180.59 258.519 180.51 258.369 180.53 258.359C180.954 258.831 181.351 259.325 181.72 259.839C182.801 261.173 183.981 262.423 185.25 263.579C189.424 267.437 194.575 270.08 200.143 271.22C205.711 272.361 211.486 271.956 216.84 270.049C218.462 269.487 220.037 268.799 221.55 267.989C222.114 267.661 222.695 267.364 223.29 267.099Z" fill="white"/>
<path d="M252.418 330.42C252.418 330.42 252.318 330.27 252.138 329.95C251.958 329.63 251.678 329.17 251.338 328.57C250.335 326.792 249.192 325.096 247.918 323.5L246.558 321.9L245.828 321.03L244.978 320.2L243.178 318.42L241.078 316.68C237.725 314.015 234.024 311.818 230.078 310.15C225.315 308.136 220.241 306.955 215.078 306.66C209.135 306.341 203.193 307.296 197.648 309.46C191.798 311.76 186.148 315.23 180.168 318.59C177.14 320.34 174.004 321.896 170.778 323.25C167.436 324.657 163.911 325.583 160.308 326C156.703 326.363 153.064 326.143 149.528 325.35C146.107 324.597 142.777 323.474 139.598 322C133.644 319.119 127.979 315.677 122.678 311.72C117.548 308.07 112.678 304.54 107.868 301.72C103.446 299.012 98.6523 296.964 93.6384 295.64C89.4838 294.617 85.1816 294.333 80.9284 294.8C77.7173 295.133 74.5916 296.038 71.6984 297.47C69.8885 298.397 68.2075 299.557 66.6984 300.92L65.5384 302C65.2884 302.25 65.1484 302.37 65.1484 302.37C65.1484 302.37 65.2584 302.23 65.5084 301.96L66.5984 300.79C68.0983 299.388 69.78 298.194 71.5984 297.24C74.5056 295.761 77.6563 294.819 80.8984 294.46C85.187 293.957 89.5308 294.217 93.7284 295.23C98.7824 296.547 103.619 298.588 108.088 301.29C112.958 304.11 117.818 307.63 122.958 311.29C128.239 315.217 133.881 318.632 139.808 321.49C142.949 322.963 146.242 324.086 149.628 324.84C153.115 325.619 156.704 325.836 160.258 325.48C163.805 325.069 167.276 324.16 170.568 322.78C173.773 321.432 176.892 319.889 179.908 318.16C185.908 314.81 191.548 311.33 197.448 309.02C198.904 308.448 200.393 307.967 201.908 307.58C202.658 307.39 203.398 307.16 204.138 307.01L206.378 306.64C209.257 306.211 212.172 306.077 215.078 306.24C220.303 306.551 225.435 307.763 230.248 309.82C234.197 311.529 237.897 313.762 241.248 316.46C241.968 317.07 242.668 317.67 243.348 318.23L245.138 320.04L245.978 320.88C246.228 321.18 246.478 321.47 246.708 321.76C247.188 322.33 247.638 322.87 248.058 323.39C249.321 325.003 250.442 326.723 251.408 328.53C251.735 329.143 251.985 329.613 252.158 329.94C252.348 330.25 252.418 330.42 252.418 330.42Z" fill="white"/>
<path d="M222.198 372.19C222.035 372.255 221.863 372.299 221.688 372.32L220.208 372.6C219.431 372.756 218.647 372.873 217.858 372.95C216.938 373.04 215.858 373.19 214.718 373.22L212.878 373.3C212.248 373.3 211.578 373.3 210.878 373.3C209.508 373.3 208.038 373.17 206.498 373.05C203.161 372.685 199.859 372.043 196.628 371.13C193.413 370.162 190.282 368.931 187.268 367.45C185.908 366.72 184.598 366.05 183.438 365.3C182.858 364.94 182.278 364.61 181.748 364.3L180.248 363.25C179.248 362.6 178.478 361.91 177.748 361.33C177.117 360.846 176.513 360.329 175.938 359.78C175.508 359.36 175.138 359.02 174.848 358.78C174.713 358.665 174.592 358.534 174.488 358.39C174.643 358.476 174.788 358.58 174.918 358.7L176.078 359.7C176.568 360.12 177.178 360.63 177.928 361.17C178.678 361.71 179.478 362.39 180.458 363.02L181.968 364.02C182.498 364.37 183.078 364.69 183.658 365.02C184.818 365.75 186.128 366.4 187.488 367.11C193.469 370.058 199.92 371.936 206.548 372.66C208.078 372.79 209.548 372.95 210.898 372.96C211.578 372.96 212.238 373.02 212.898 372.96H214.718C215.878 372.96 216.928 372.83 217.848 372.77C218.768 372.71 219.558 372.61 220.198 372.51L221.688 372.33C221.85 372.258 222.022 372.211 222.198 372.19Z" fill="white"/>
<path d="M629.319 293.41L662.619 290.16L666.069 325.45L632.769 328.71L638.499 387.35L594.699 391.64L588.999 333L475.839 344.06L472.129 317.33L567.479 128.24L612.729 123.81L629.319 293.41ZM514.739 304.62L585.509 297.7L575.049 190.7L573.929 190.45L571.069 198.59L514.739 304.62Z" fill="#FD6038"/>
<g opacity="0.4">
<path d="M629.319 293.41L662.619 290.16L666.069 325.45L632.769 328.71L638.499 387.35L594.699 391.64L588.999 333L475.839 344.06L472.129 317.33L567.479 128.24L612.729 123.81L629.319 293.41ZM514.739 304.62L585.509 297.7L575.049 190.7L573.929 190.45L571.069 198.59L514.739 304.62Z" fill="black"/>
</g>
<path d="M657.17 290.69L690.47 287.43L693.93 322.73L660.62 326L666.36 384.65L622.55 388.93L616.82 330.29L503.69 341.33L500 314.61L595.35 125.52L640.6 121.09L657.17 290.69ZM542.6 301.89L613.37 295L602.91 188L601.78 187.74L598.93 195.88L542.6 301.89Z" fill="#FD6038"/>
<path d="M501.26 319.609C500.954 319.894 500.619 320.145 500.26 320.359C499.61 320.819 498.65 321.459 497.46 322.239C495.07 323.799 491.75 325.899 488.02 328.139C484.29 330.379 480.88 332.329 478.38 333.699C477.14 334.379 476.12 334.929 475.38 335.289C475.022 335.501 474.643 335.675 474.25 335.809C474.554 335.537 474.89 335.302 475.25 335.109L478.14 333.379L487.7 327.689L497.2 321.929L500.09 320.189C500.456 319.951 500.849 319.757 501.26 319.609Z" fill="#FD6038"/>
<path d="M513.162 287.67C512.728 288.039 512.267 288.373 511.782 288.67C510.882 289.28 509.552 290.15 507.902 291.21C504.602 293.32 500.002 296.21 494.902 299.21C489.802 302.21 485.102 305.02 481.692 306.94C479.992 307.94 478.602 308.67 477.632 309.18C477.14 309.466 476.629 309.717 476.102 309.93C476.552 309.582 477.031 309.271 477.532 309L481.532 306.62L494.662 298.77L507.752 290.86L511.752 288.47C512.201 288.168 512.672 287.9 513.162 287.67Z" fill="#FD6038"/>
<path d="M529.082 258.439C528.625 258.81 528.14 259.144 527.632 259.439C526.632 260.059 525.292 260.939 523.562 262.009C520.102 264.139 515.282 267.009 509.922 270.129C504.562 273.249 499.672 275.999 496.102 277.999C494.322 278.999 492.872 279.749 491.862 280.269C491.348 280.559 490.813 280.81 490.262 281.019C490.738 280.672 491.239 280.361 491.762 280.089L495.922 277.679L509.662 269.739L523.372 261.739L527.522 259.319C528.019 258.987 528.54 258.693 529.082 258.439Z" fill="#FD6038"/>
<path d="M612.219 277.78C611.914 278.059 611.578 278.304 611.219 278.51C610.569 278.96 609.599 279.58 608.409 280.34C606.009 281.86 602.669 283.9 598.929 286.08C595.189 288.26 591.749 290.14 589.239 291.46C587.989 292.13 586.969 292.65 586.239 293C585.882 293.207 585.503 293.374 585.109 293.5C585.418 293.239 585.753 293.011 586.109 292.82L589.019 291.14L598.609 285.62L608.159 280.03L611.069 278.34C611.43 278.11 611.816 277.922 612.219 277.78Z" fill="#FD6038"/>
<path d="M616.738 332.62C616.436 332.903 616.1 333.148 615.738 333.35C615.108 333.79 614.178 334.41 613.018 335.17C610.708 336.67 607.478 338.7 603.858 340.86C600.238 343.02 596.908 344.86 594.478 346.2C593.268 346.86 592.278 347.38 591.588 347.73C591.243 347.937 590.873 348.102 590.488 348.22C590.797 347.962 591.132 347.738 591.488 347.55L594.298 345.88L603.588 340.41L612.828 334.85L615.638 333.18C615.981 332.95 616.35 332.762 616.738 332.62Z" fill="#FD6038"/>
<path d="M619 351.75C618.697 352.033 618.362 352.278 618 352.48C617.37 352.92 616.44 353.54 615.28 354.3C612.97 355.8 609.74 357.83 606.12 359.98C602.5 362.13 599.17 363.98 596.74 365.33C595.53 365.99 594.54 366.51 593.85 366.86C593.504 367.067 593.135 367.232 592.75 367.35C593.059 367.092 593.394 366.868 593.75 366.68L596.56 365.01L605.85 359.54L615.09 353.98L617.9 352.31C618.243 352.08 618.612 351.892 619 351.75Z" fill="#FD6038"/>
<path d="M621.238 370.88C620.936 371.163 620.6 371.408 620.238 371.61C619.608 372.05 618.678 372.67 617.518 373.42C615.208 374.93 611.978 376.96 608.358 379.11C604.738 381.26 601.408 383.11 598.978 384.46C597.768 385.12 596.778 385.64 596.088 385.99C595.74 386.191 595.371 386.356 594.988 386.48C595.297 386.222 595.632 385.997 595.988 385.81L598.798 384.14L608.088 378.67L617.328 373.11L620.138 371.44C620.481 371.21 620.85 371.022 621.238 370.88Z" fill="#FD6038"/>
<path d="M609.872 257.56C609.565 257.84 609.229 258.088 608.872 258.3C608.212 258.74 607.252 259.37 606.052 260.13C603.652 261.64 600.312 263.69 596.572 265.86C592.832 268.03 589.392 269.92 586.892 271.25C585.632 271.91 584.612 272.44 583.892 272.79C583.534 272.996 583.155 273.164 582.762 273.29C583.072 273.03 583.407 272.803 583.762 272.61L586.662 270.93L596.262 265.41L605.812 259.81L608.712 258.13C609.077 257.899 609.466 257.708 609.872 257.56Z" fill="#FD6038"/>
<path d="M607.52 237.35C607.216 237.633 606.88 237.881 606.52 238.09C605.86 238.53 604.9 239.15 603.7 239.91C601.31 241.43 597.97 243.48 594.22 245.65C590.47 247.82 587.05 249.71 584.54 251.04C583.29 251.7 582.27 252.23 581.54 252.58C581.186 252.79 580.806 252.954 580.41 253.07C580.718 252.81 581.053 252.585 581.41 252.4L584.31 250.71L593.91 245.2L603.46 239.6L606.36 237.91C606.727 237.684 607.115 237.496 607.52 237.35Z" fill="#FD6038"/>
<path d="M605.181 217.14C604.895 217.408 604.58 217.643 604.241 217.84C603.611 218.27 602.691 218.84 601.551 219.59C599.281 221.04 596.101 222.99 592.551 225.06C589.001 227.13 585.711 228.93 583.321 230.19L580.471 231.65C580.129 231.845 579.767 232.003 579.391 232.12C579.701 231.87 580.036 231.652 580.391 231.47L583.151 229.86L592.301 224.61L601.391 219.27L604.161 217.67C604.48 217.456 604.822 217.278 605.181 217.14Z" fill="#FD6038"/>
<path d="M604.781 198C603.322 199.088 601.761 200.032 600.121 200.82C598.56 201.757 596.916 202.551 595.211 203.19C596.67 202.102 598.231 201.158 599.871 200.37C601.431 199.431 603.075 198.637 604.781 198Z" fill="#FD6038"/>
<path d="M544.822 228.24C544.37 228.612 543.888 228.947 543.382 229.24C542.382 229.86 541.032 230.74 539.302 231.81C535.852 233.94 531.032 236.81 525.672 239.93C520.312 243.05 515.422 245.8 511.852 247.74C510.072 248.74 508.612 249.49 507.602 250.01C507.09 250.296 506.558 250.547 506.012 250.76C506.486 250.41 506.987 250.099 507.512 249.83L511.672 247.42L525.412 239.48L539.112 231.48L543.272 229.06C543.768 228.75 544.286 228.476 544.822 228.24Z" fill="#FD6038"/>
<path d="M560.57 198C560.113 198.37 559.628 198.705 559.12 199C558.12 199.62 556.78 200.5 555.05 201.57C551.59 203.7 546.77 206.57 541.42 209.69C536.07 212.81 531.16 215.56 527.59 217.5C525.81 218.5 524.36 219.25 523.35 219.77C522.836 220.06 522.301 220.311 521.75 220.52C522.226 220.173 522.727 219.862 523.25 219.59L527.41 217.18L541.15 209.24L554.86 201.24L559.02 198.82C559.515 198.507 560.033 198.233 560.57 198Z" fill="#FD6038"/>
<path d="M574.832 168.05C574.375 168.42 573.89 168.754 573.382 169.05C572.382 169.67 571.042 170.55 569.312 171.62C565.852 173.75 561.032 176.62 555.672 179.74C550.312 182.86 545.422 185.61 541.852 187.55C540.072 188.55 538.622 189.3 537.612 189.82C537.097 190.108 536.562 190.358 536.012 190.57C536.488 190.223 536.989 189.912 537.512 189.64L541.672 187.23L555.412 179.29L569.122 171.29L573.272 168.87C573.769 168.555 574.291 168.281 574.832 168.05Z" fill="#FD6038"/>
<path d="M590 139C589.543 139.37 589.058 139.705 588.55 140C587.6 140.62 586.21 141.5 584.48 142.57C581.02 144.7 576.2 147.57 570.84 150.7C565.48 153.83 560.59 156.56 557.02 158.51C555.24 159.51 553.79 160.25 552.78 160.77C552.266 161.063 551.731 161.317 551.18 161.53C551.65 161.172 552.153 160.858 552.68 160.59L556.84 158.19L570.58 150.19L584.29 142.19L588.44 139.77C588.94 139.475 589.461 139.218 590 139Z" fill="#FD6038"/>
<path d="M645.812 172.16C645.674 172.417 645.514 172.662 645.332 172.89C644.859 173.59 644.342 174.258 643.782 174.89C641.759 177.243 639.4 179.285 636.782 180.95C632.891 183.433 628.536 185.1 623.982 185.85C621.294 186.28 618.56 186.357 615.852 186.08C612.954 185.761 610.098 185.134 607.332 184.21C601.632 182.38 596.472 179.99 591.542 178.51C587.207 177.116 582.638 176.602 578.102 177C575.043 177.279 572.093 178.276 569.492 179.91C568.788 180.369 568.119 180.881 567.492 181.44C567.291 181.651 567.07 181.842 566.832 182.01C567.01 181.78 567.207 181.566 567.422 181.37C568.015 180.77 568.661 180.224 569.352 179.74C571.95 178.016 574.93 176.952 578.032 176.64C582.63 176.157 587.279 176.62 591.692 178C596.692 179.47 601.852 181.84 607.492 183.67C610.227 184.578 613.049 185.201 615.912 185.53C618.577 185.803 621.265 185.732 623.912 185.32C628.409 184.605 632.717 182.997 636.582 180.59C639.176 178.963 641.531 176.984 643.582 174.71C644.153 174.1 644.69 173.459 645.192 172.79C645.383 172.566 645.591 172.355 645.812 172.16Z" fill="white"/>
<path d="M625.069 125.17C624.714 125.507 624.329 125.812 623.919 126.08C623.159 126.65 622.019 127.4 620.569 128.27C618.867 129.289 617.111 130.214 615.309 131.04C613.094 132.041 610.824 132.912 608.509 133.65C606.185 134.365 603.82 134.943 601.429 135.38C599.476 135.722 597.506 135.962 595.529 136.1C593.839 136.21 592.469 136.23 591.529 136.2C591.037 136.221 590.544 136.191 590.059 136.11C590.541 136.028 591.03 135.991 591.519 136C592.459 136 593.819 135.88 595.519 135.73C597.219 135.58 599.179 135.31 601.359 134.91C603.72 134.446 606.056 133.862 608.359 133.16C610.656 132.428 612.913 131.573 615.119 130.6C617.119 129.69 618.929 128.79 620.389 127.95C621.849 127.11 623.019 126.42 623.809 125.95C624.205 125.654 624.627 125.393 625.069 125.17Z" fill="white"/>
<path d="M570.398 245.11C570.04 244.847 569.705 244.552 569.398 244.23L566.658 241.78C563.622 239.114 560.444 236.613 557.138 234.29C555.339 232.997 553.404 231.904 551.368 231.03C549.71 230.334 547.944 229.924 546.148 229.82C544.486 229.751 542.824 229.974 541.238 230.48C541.238 230.48 541.338 230.4 541.548 230.3C541.852 230.156 542.166 230.036 542.488 229.94C543.679 229.572 544.923 229.407 546.168 229.45C548.015 229.508 549.837 229.894 551.548 230.59C553.628 231.449 555.601 232.546 557.428 233.86C560.761 236.188 563.929 238.744 566.908 241.51C568.048 242.57 568.908 243.51 569.538 244.09C569.863 244.396 570.151 244.739 570.398 245.11Z" fill="white"/>
<path d="M653.62 263.81C653.62 263.81 653.52 263.94 653.28 264.16C653.04 264.38 652.7 264.71 652.21 265.08C650.858 266.168 649.409 267.128 647.88 267.95C642.814 270.717 637.069 271.998 631.307 271.644C625.545 271.291 620 269.317 615.31 265.95C613.896 264.951 612.577 263.822 611.37 262.58C610.93 262.15 610.63 261.78 610.37 261.58C610.251 261.462 610.15 261.327 610.07 261.18C610.07 261.18 610.57 261.64 611.46 262.48C612.709 263.652 614.046 264.725 615.46 265.69C620.131 268.929 625.598 270.828 631.271 271.18C636.944 271.533 642.605 270.326 647.64 267.69C649.168 266.904 650.632 266.001 652.02 264.99C652.531 264.567 653.065 264.173 653.62 263.81Z" fill="white"/>
<path d="M691.38 322.39C691.246 322.268 691.119 322.138 691 322C690.76 321.71 690.44 321.29 690 320.75C688.754 319.133 687.383 317.615 685.9 316.21L684.32 314.81L683.48 314.06L682.48 313.35L680.48 311.85L678.15 310.42C674.465 308.254 670.502 306.599 666.37 305.5C661.364 304.164 656.165 303.697 651 304.12C645.072 304.644 639.324 306.427 634.14 309.35C628.67 312.45 623.57 316.68 618.14 320.85C615.385 323.003 612.499 324.983 609.5 326.78C606.382 328.643 603.015 330.054 599.5 330.97C595.979 331.829 592.344 332.123 588.73 331.84C585.231 331.552 581.774 330.881 578.42 329.84C572.121 327.833 566.029 325.225 560.23 322.05C554.63 319.15 549.34 316.35 544.16 314.24C539.38 312.189 534.327 310.842 529.16 310.24C524.901 309.827 520.602 310.165 516.46 311.24C513.329 312.021 510.362 313.355 507.7 315.18C506.032 316.358 504.52 317.742 503.2 319.3L502.25 320.58C502.03 320.87 501.91 321.01 501.91 321.01C501.91 321.01 502 320.85 502.2 320.55L503.12 319.24C504.408 317.637 505.909 316.218 507.58 315.02C510.244 313.14 513.23 311.764 516.39 310.96C520.564 309.855 524.902 309.5 529.2 309.91C534.391 310.507 539.467 311.855 544.27 313.91C549.49 316.01 554.8 318.81 560.4 321.69C566.178 324.837 572.242 327.429 578.51 329.43C581.83 330.44 585.25 331.087 588.71 331.36C592.27 331.642 595.852 331.352 599.32 330.5C602.775 329.593 606.084 328.203 609.15 326.37C612.134 324.589 615.003 322.622 617.74 320.48C623.18 316.33 628.31 312.09 633.83 308.97C635.193 308.201 636.603 307.516 638.05 306.92C638.76 306.62 639.45 306.3 640.17 306.04L642.33 305.36C645.121 304.53 647.989 303.984 650.89 303.73C656.107 303.31 661.356 303.791 666.41 305.15C670.566 306.269 674.55 307.951 678.25 310.15L680.58 311.6L682.58 313.14L683.58 313.85L684.42 314.62L685.99 316.04C687.446 317.469 688.784 319.014 689.99 320.66C690.39 321.22 690.71 321.66 690.93 321.95L691.38 322.39Z" fill="white"/>
<path d="M667.32 368C667.167 368.082 667.006 368.149 666.84 368.2L665.42 368.69C664.672 368.952 663.911 369.175 663.14 369.36C662.23 369.58 661.22 369.88 660.06 370.07L658.26 370.41C657.63 370.52 656.97 370.58 656.26 370.67C654.9 370.87 653.43 370.94 651.88 371.04C648.539 371.142 645.194 370.971 641.88 370.53C638.56 370.027 635.289 369.244 632.1 368.19C630.64 367.67 629.25 367.19 628 366.61C627.37 366.33 626.75 366.09 626.18 365.81L624.55 364.98C623.49 364.47 622.6 363.9 621.8 363.43C621.111 363.039 620.444 362.612 619.8 362.15L618.57 361.28C618.42 361.188 618.282 361.077 618.16 360.95C618.327 361.008 618.485 361.089 618.63 361.19L619.91 361.98C620.45 362.33 621.13 362.75 621.91 363.18C622.69 363.61 623.61 364.18 624.67 364.65L626.31 365.44C626.88 365.72 627.5 365.95 628.13 366.22C629.38 366.77 630.76 367.22 632.21 367.74C635.407 368.757 638.681 369.512 642 370C645.297 370.446 648.624 370.63 651.95 370.55C653.48 370.46 654.95 370.42 656.29 370.23C656.96 370.15 657.62 370.1 658.29 370L660.09 369.7C661.24 369.54 662.25 369.26 663.16 369.07C664.07 368.88 664.83 368.67 665.45 368.48L666.9 368.09C667.037 368.045 667.177 368.015 667.32 368Z" fill="white"/>
<path d="M453.789 208.27C443.843 207.111 434.415 203.209 426.559 197C426.559 197 431.769 212.42 453.119 213.23L453.789 208.27Z" fill="#EB996E"/>
<path d="M449.229 178.91C450.572 177.993 452.218 177.635 453.819 177.91C454.636 178.023 455.389 178.415 455.949 179.02C456.555 179.914 456.821 180.996 456.699 182.07C456.704 182.718 456.606 183.362 456.409 183.98C456.204 184.597 455.767 185.11 455.189 185.41C454.547 185.641 453.851 185.676 453.189 185.51C452.089 185.369 451.034 184.986 450.099 184.39C449.634 184.091 449.239 183.695 448.942 183.229C448.645 182.763 448.453 182.238 448.379 181.69C448.318 181.139 448.435 180.582 448.714 180.103C448.993 179.624 449.419 179.248 449.929 179.03" fill="#EB996E"/>
<path d="M545.821 222.699C545.721 222.699 545.621 221.639 545.101 220.009C544.79 219.06 544.395 218.139 543.921 217.259C542.741 215.112 541.102 213.251 539.121 211.809C538.313 211.222 537.453 210.71 536.551 210.279C535.011 209.549 533.961 209.279 533.981 209.219C534.235 209.209 534.488 209.243 534.731 209.32C535.415 209.466 536.084 209.673 536.731 209.939C537.68 210.338 538.585 210.834 539.431 211.419C541.514 212.859 543.211 214.789 544.371 217.039C544.843 217.953 545.215 218.916 545.481 219.909C545.664 220.564 545.788 221.233 545.851 221.909C545.883 222.173 545.873 222.439 545.821 222.699Z" fill="#EB996E"/>
<path d="M422.309 320.69C422.559 320.515 422.846 320.402 423.149 320.36C423.959 320.183 424.801 320.211 425.599 320.44C426.773 320.774 427.87 321.335 428.829 322.09C429.406 322.519 429.944 322.998 430.439 323.52C430.937 324.134 431.36 324.806 431.699 325.52C432.883 327.905 433.87 330.384 434.649 332.93C434.949 333.93 435.149 334.7 435.279 335.26C435.372 335.544 435.416 335.842 435.409 336.14C435.339 336.14 434.979 334.95 434.299 333.04C433.417 330.553 432.392 328.119 431.229 325.75C430.913 325.087 430.517 324.466 430.049 323.9C429.582 323.398 429.078 322.933 428.539 322.51C427.644 321.78 426.629 321.211 425.539 320.83C424.49 320.52 423.381 320.472 422.309 320.69Z" fill="#EB996E"/>
<path d="M430.082 347.81C429.851 347.462 429.66 347.09 429.512 346.7L428.102 343.64C426.912 341.05 425.172 337.51 423.512 333.48C422.844 331.564 421.961 329.729 420.882 328.01C419.95 326.662 418.667 325.593 417.172 324.92C416.178 324.439 415.071 324.242 413.972 324.35C413.192 324.45 412.792 324.66 412.772 324.61C412.752 324.56 412.862 324.54 413.052 324.44C413.33 324.301 413.626 324.204 413.932 324.15C415.08 323.954 416.26 324.104 417.322 324.58C418.909 325.242 420.278 326.337 421.272 327.74C422.395 329.472 423.308 331.332 423.992 333.28C425.642 337.28 427.332 340.86 428.442 343.49C428.992 344.8 429.442 345.88 429.702 346.62C429.872 347.002 429.999 347.401 430.082 347.81Z" fill="#EB996E"/>
<path d="M400.461 332.38C400.774 332.156 401.109 331.965 401.461 331.81L404.341 330.42C404.961 330.13 405.611 329.81 406.341 329.49C407.163 329.162 408.05 329.032 408.931 329.11C409.912 329.188 410.853 329.534 411.651 330.11C412.456 330.768 413.134 331.568 413.651 332.47C414.201 333.37 414.651 334.3 415.051 335.16C415.451 336.02 415.921 336.85 416.361 337.63C417.231 339.18 418.051 340.57 418.651 341.79C419.145 342.743 419.572 343.728 419.931 344.74C420.091 345.099 420.199 345.48 420.251 345.87C420.171 345.87 419.631 344.32 418.331 341.96C417.681 340.78 416.841 339.42 415.941 337.87C415.491 337.09 415.041 336.26 414.601 335.39C414.161 334.52 413.741 333.61 413.211 332.74C412.726 331.896 412.101 331.142 411.361 330.51C410.648 329.964 409.802 329.619 408.911 329.51C408.102 329.422 407.283 329.525 406.521 329.81C405.801 330.1 405.111 330.42 404.521 330.67L401.571 332C401.218 332.171 400.845 332.298 400.461 332.38Z" fill="#EB996E"/>
<path d="M401.858 327.069C401.591 327.291 401.295 327.476 400.978 327.619C400.398 327.949 399.548 328.409 398.488 328.969C396.378 330.089 393.438 331.609 390.178 333.249C386.918 334.889 383.958 336.349 381.798 337.389L379.238 338.589C378.923 338.757 378.587 338.881 378.238 338.959C378.511 338.737 378.81 338.549 379.128 338.399C379.708 338.079 380.558 337.619 381.618 337.059C383.728 335.939 386.668 334.429 389.928 332.779C393.188 331.129 396.148 329.679 398.298 328.649C399.378 328.129 400.298 327.719 400.868 327.439C401.179 327.269 401.512 327.144 401.858 327.069Z" fill="#EB996E"/>
<path d="M326.109 284.93C323.587 284.549 321.03 284.465 318.489 284.68C315.967 285.06 313.497 285.731 311.129 286.68C311.731 286.201 312.406 285.822 313.129 285.56C314.818 284.834 316.603 284.356 318.429 284.14C320.26 283.924 322.112 283.971 323.929 284.28C324.686 284.377 325.422 284.597 326.109 284.93Z" fill="#EB996E"/>
<path d="M618.91 434.001C619.769 432.132 621.069 430.5 622.699 429.245C624.329 427.991 626.24 427.152 628.266 426.801C630.293 426.449 632.374 426.596 634.331 427.229C636.289 427.861 638.062 428.96 639.5 430.431C637.393 433.832 634.119 436.349 630.29 437.511C628.268 438.223 626.07 438.267 624.021 437.635C621.972 437.003 620.18 435.729 618.91 434.001Z" fill="#FD6038"/>
<path d="M611.812 435.64C612.731 435.229 613.694 434.927 614.682 434.74C616.492 434.3 619.012 433.81 621.802 433.35C624.592 432.89 627.132 432.54 628.982 432.35C629.974 432.186 630.978 432.109 631.982 432.12C631.021 432.403 630.038 432.603 629.042 432.72L621.893 433.89C619.113 434.35 616.593 434.79 614.773 435.13C613.796 435.356 612.808 435.526 611.812 435.64Z" fill="#0E1412"/>
<path d="M261.481 370.69C263.614 372.447 265.276 374.705 266.318 377.263C267.361 379.821 267.751 382.599 267.453 385.345C267.156 388.091 266.18 390.72 264.614 392.996C263.048 395.271 260.94 397.122 258.481 398.38C254.811 388.97 253.401 378.84 261.481 370.69Z" fill="#FD6038"/>
<path d="M275.391 377.91C275.587 381.477 276.668 384.939 278.535 387.985C280.402 391.03 282.996 393.564 286.086 395.358C289.175 397.152 292.661 398.15 296.232 398.262C299.803 398.374 303.345 397.597 306.541 396C299.541 385 290.071 375.73 275.391 377.89" fill="#FD6038"/>
<path d="M243.52 343.131C243.696 343.278 243.854 343.446 243.99 343.631L245.24 345.121C246.3 346.431 247.85 348.321 249.81 350.611C253.71 355.211 259.22 361.471 265.71 368.001C268.96 371.261 272.15 374.271 275.11 376.931C278.07 379.591 280.87 381.861 283.27 383.681C285.155 385.126 287.121 386.461 289.16 387.681C290.61 388.541 291.47 388.901 291.45 388.951C291.226 388.9 291.011 388.819 290.81 388.711C290.209 388.465 289.624 388.181 289.06 387.861C286.975 386.7 284.97 385.4 283.06 383.971C280.62 382.171 277.82 379.901 274.81 377.281C271.8 374.661 268.61 371.621 265.35 368.361C258.85 361.821 253.35 355.511 249.54 350.841C247.61 348.511 246.11 346.581 245.09 345.241L243.91 343.681C243.763 343.51 243.632 343.326 243.52 343.131Z" fill="#0E1412"/>
<path d="M260.71 384.911C260.62 384.911 260.95 383.511 261.24 381.241C261.982 375.304 261.353 369.276 259.4 363.621C258.65 361.461 258.04 360.171 258.12 360.131C258.328 360.393 258.5 360.683 258.63 360.991C259.048 361.804 259.421 362.638 259.75 363.491C260.829 366.314 261.535 369.265 261.85 372.271C262.162 375.269 262.078 378.295 261.6 381.271C261.452 382.191 261.252 383.103 261 384.001C260.939 384.314 260.842 384.62 260.71 384.911Z" fill="#0E1412"/>
<path d="M702.001 182.54C700.763 180.899 699.943 178.981 699.611 176.952C699.28 174.923 699.447 172.844 700.099 170.893C700.75 168.943 701.867 167.181 703.352 165.759C704.836 164.337 706.645 163.297 708.621 162.73C710.617 166.192 711.282 170.263 710.491 174.18C710.16 176.3 709.156 178.258 707.627 179.763C706.099 181.268 704.126 182.242 702.001 182.54Z" fill="#FD6038"/>
<path d="M700.102 189.571C700.172 188.568 700.363 187.578 700.672 186.621C701.142 184.821 701.902 182.371 702.822 179.691C703.742 177.011 704.642 174.611 705.322 172.881C705.642 171.928 706.05 171.008 706.542 170.131C706.332 171.113 706.041 172.077 705.672 173.011C705.012 174.921 704.202 177.261 703.312 179.861C702.422 182.461 701.582 184.961 701.022 186.721C700.764 187.686 700.457 188.637 700.102 189.571Z" fill="#0E1412"/>
<path d="M658 256.941C656.965 253.101 656.881 249.067 657.754 245.187C658.628 241.307 660.433 237.698 663.013 234.672C665.593 231.645 668.872 229.293 672.565 227.817C676.258 226.341 680.254 225.786 684.21 226.201C685.6 233.761 683.21 241.521 679.26 248.091C674.55 255.841 665.19 259.091 658 256.941Z" fill="#FD6038"/>
<path d="M628.41 286.541C628.535 286.347 628.679 286.166 628.84 286.001L630.13 284.531C631.28 283.271 632.96 281.471 635.05 279.271C639.25 274.871 645.11 268.861 651.63 262.271C658.15 255.681 664.08 249.731 668.4 245.461L673.54 240.411L674.96 239.061C675.28 238.761 675.46 238.601 675.48 238.621C675.347 238.808 675.196 238.982 675.03 239.141L673.68 240.561L668.68 245.711L652 262.631L635.32 279.531L630.32 284.671L628.96 286.071C628.796 286.248 628.611 286.406 628.41 286.541Z" fill="#0E1412"/>
<g opacity="0.3">
<path d="M658 256.941C656.965 253.101 656.881 249.067 657.754 245.187C658.628 241.307 660.433 237.698 663.013 234.672C665.593 231.645 668.872 229.293 672.565 227.817C676.258 226.341 680.254 225.786 684.21 226.201C685.6 233.761 683.21 241.521 679.26 248.091C674.55 255.841 665.19 259.091 658 256.941Z" fill="black"/>
</g>
<path d="M644.292 259.911C642.114 258.801 640.24 257.175 638.833 255.176C637.427 253.176 636.53 250.864 636.222 248.438C635.913 246.013 636.202 243.549 637.063 241.261C637.924 238.973 639.331 236.93 641.162 235.311C645.162 237.811 647.722 242.081 649.052 246.601C650.632 251.941 648.252 257.601 644.292 259.911Z" fill="#FD6038"/>
<g opacity="0.3">
<path d="M644.292 259.911C642.114 258.801 640.24 257.175 638.833 255.176C637.427 253.176 636.53 250.864 636.222 248.438C635.913 246.013 636.202 243.549 637.063 241.261C637.924 238.973 639.331 236.93 641.162 235.311C645.162 237.811 647.722 242.081 649.052 246.601C650.632 251.941 648.252 257.601 644.292 259.911Z" fill="black"/>
</g>
<path d="M645.851 268.43C645.713 268.137 645.612 267.828 645.551 267.51C645.381 266.92 645.191 266.05 644.981 264.96C644.561 262.8 644.121 259.78 643.721 256.45C643.321 253.12 643.041 250.08 642.871 247.88C642.727 246.699 642.68 245.509 642.731 244.32C642.98 245.484 643.151 246.663 643.241 247.85C643.511 250.17 643.861 253.12 644.241 256.39C644.621 259.66 645.021 262.73 645.341 264.9C645.661 267.07 645.931 268.41 645.851 268.43Z" fill="#0E1412"/>
<path d="M457 375.81C458.528 372.184 460.936 368.997 464.007 366.536C467.077 364.074 470.712 362.417 474.584 361.715C478.455 361.012 482.441 361.285 486.18 362.51C489.92 363.735 493.295 365.873 496 368.73C484.66 377.52 471.43 383.52 457.08 375.81" fill="#FD6038"/>
<g opacity="0.3">
<path d="M457 375.81C458.528 372.184 460.936 368.997 464.007 366.536C467.077 364.074 470.712 362.417 474.584 361.715C478.455 361.012 482.441 361.285 486.18 362.51C489.92 363.735 493.295 365.873 496 368.73C484.66 377.52 471.43 383.52 457.08 375.81" fill="black"/>
</g>
<path d="M450.633 379.33C450.903 379.061 451.205 378.825 451.533 378.63C452.133 378.2 453.023 377.63 454.163 376.97C460.106 373.535 466.693 371.359 473.513 370.58C474.813 370.44 475.873 370.37 476.603 370.36C476.981 370.308 477.365 370.308 477.743 370.36C477.743 370.44 476.133 370.54 473.553 370.92C470.196 371.411 466.888 372.188 463.663 373.24C460.447 374.304 457.329 375.642 454.343 377.24C452.003 378.52 450.683 379.4 450.633 379.33Z" fill="#0E1412"/>
<path d="M193.43 245.51C196.176 244.23 199.197 243.651 202.222 243.828C205.247 244.005 208.181 244.93 210.759 246.522C213.338 248.114 215.48 250.321 216.993 252.946C218.507 255.571 219.344 258.532 219.43 261.56C208.38 260.74 197.69 257.35 193.43 245.51Z" fill="#FD6038"/>
<g opacity="0.3">
<path d="M193.43 245.51C196.176 244.23 199.197 243.651 202.222 243.828C205.247 244.005 208.181 244.93 210.759 246.522C213.338 248.114 215.48 250.321 216.993 252.946C218.507 255.571 219.344 258.532 219.43 261.56C208.38 260.74 197.69 257.35 193.43 245.51Z" fill="black"/>
</g>
<path d="M187.941 244.221C188.233 244.173 188.53 244.173 188.821 244.221C189.618 244.306 190.409 244.433 191.191 244.601C193.781 245.141 196.308 245.949 198.731 247.011C201.153 248.083 203.458 249.399 205.611 250.941C206.431 251.541 207.071 252.051 207.491 252.431C207.728 252.609 207.94 252.817 208.121 253.051C208.061 253.121 207.121 252.351 205.401 251.251C201.03 248.366 196.197 246.252 191.111 245.001C189.161 244.511 187.931 244.301 187.941 244.221Z" fill="#0E1412"/>
<path d="M551.763 363.561C551.437 360.869 551.786 358.139 552.777 355.616C553.769 353.093 555.372 350.856 557.443 349.107C559.514 347.357 561.987 346.15 564.641 345.594C567.294 345.038 570.044 345.15 572.643 345.921C568.873 355.091 563.013 363.241 551.763 363.561Z" fill="#FD6038"/>
<path d="M549.133 367.871C549.438 366.936 549.858 366.042 550.383 365.211C552.743 361.085 555.95 357.507 559.793 354.711C560.564 354.1 561.407 353.586 562.303 353.181C561.569 353.828 560.801 354.436 560.003 355.001C556.332 357.913 553.18 361.426 550.683 365.391C550.214 366.246 549.697 367.074 549.133 367.871Z" fill="#0E1412"/>
<path d="M630.453 311.61C629.627 309.029 629.456 306.282 629.956 303.618C630.455 300.953 631.609 298.455 633.314 296.347C635.019 294.24 637.221 292.589 639.722 291.544C642.223 290.499 644.945 290.092 647.643 290.36C645.643 300.08 641.443 309.18 630.453 311.61Z" fill="#FD6038"/>
<g opacity="0.3">
<path d="M630.453 311.61C629.627 309.029 629.456 306.282 629.956 303.618C630.455 300.953 631.609 298.455 633.314 296.347C635.019 294.24 637.221 292.589 639.722 291.544C642.223 290.499 644.945 290.092 647.643 290.36C645.643 300.08 641.443 309.18 630.453 311.61Z" fill="black"/>
</g>
<path d="M628.68 316.341C628.801 315.367 629.046 314.413 629.41 313.501C630.175 311.256 631.181 309.1 632.41 307.071C633.626 305.037 635.062 303.143 636.69 301.421C637.328 300.667 638.057 299.996 638.86 299.421C638.266 300.194 637.632 300.935 636.96 301.641C635.44 303.421 634.065 305.32 632.85 307.321C631.656 309.33 630.623 311.43 629.76 313.601C629.453 314.534 629.092 315.449 628.68 316.341Z" fill="#0E1412"/>
<path d="M37.2812 240.1C37.8692 237.454 39.106 234.995 40.8805 232.945C42.6549 230.895 44.9112 229.319 47.4463 228.358C49.9814 227.397 52.7157 227.081 55.4031 227.439C58.0904 227.798 60.6465 228.819 62.8413 230.41C56.2413 237.8 48.0013 243.54 37.2812 240.1Z" fill="#FD6038"/>
<path d="M33.3711 243.29C33.9726 242.515 34.6641 241.813 35.4311 241.2C37.2242 239.665 39.1751 238.324 41.2511 237.2C43.3289 236.055 45.5251 235.14 47.8011 234.47C48.7274 234.144 49.6921 233.939 50.6711 233.86C49.7699 234.243 48.8485 234.577 47.9111 234.86C43.4797 236.381 39.3403 238.647 35.6711 241.56C34.9391 242.182 34.1711 242.759 33.3711 243.29Z" fill="#0E1412"/>
<path d="M494.371 109.6L502.371 95.1102C497.237 86.9529 495.339 77.17 497.051 67.6846C498.763 58.1991 503.961 49.6971 511.623 43.8496C519.286 38.002 528.858 35.2319 538.459 36.0838C548.06 36.9356 556.995 41.3477 563.508 48.453C570.022 55.5582 573.642 64.8426 573.657 74.4813C573.672 84.12 570.082 93.4159 563.591 100.542C557.101 107.668 548.18 112.108 538.581 112.991C528.983 113.873 519.402 111.133 511.721 105.31L494.371 109.6Z" fill="white"/>
<path d="M494.371 109.6L511.741 105.2L511.671 105.41L511.061 104.64L511.861 105.23C514.32 107.073 516.984 108.623 519.801 109.85C523.155 111.293 526.697 112.253 530.321 112.7C532.327 112.951 534.352 113.024 536.371 112.92C537.371 112.85 538.471 112.81 539.541 112.71L542.751 112.18C552.327 110.186 560.784 104.618 566.401 96.6102C569.521 92.1822 571.662 87.1403 572.681 81.8202C573.705 76.189 573.473 70.4012 572.001 64.8702C570.503 59.0954 567.655 53.7589 563.691 49.3002L562.121 47.6102C561.601 47.0402 560.991 46.6102 560.431 46.0502C559.879 45.5214 559.299 45.0239 558.691 44.5602L556.851 43.2102C556.263 42.7642 555.645 42.3599 555.001 42.0002L553.001 40.8202L551.001 39.8202C550.354 39.4824 549.686 39.1851 549.001 38.9302C543.563 36.8326 537.721 35.9883 531.911 36.4602C526.414 36.8772 521.077 38.5025 516.281 41.2202C507.657 46.118 501.237 54.1341 498.341 63.6202C497.195 67.6644 496.662 71.8578 496.761 76.0602C496.992 82.7931 498.992 89.3464 502.561 95.0602V95.1202V95.1902L494.411 109.61L502.341 95.0602V95.1902C498.707 89.471 496.654 82.891 496.391 76.1202C496.27 71.8793 496.793 67.6445 497.941 63.5602C500.836 53.9571 507.299 45.8271 516.001 40.8402C520.859 38.0856 526.263 36.4333 531.831 36.0002C537.718 35.5205 543.638 36.3715 549.151 38.4902C549.859 38.7466 550.551 39.0472 551.221 39.3902L553.281 40.3902L555.281 41.5602C555.952 41.9333 556.596 42.3509 557.211 42.8102L559.001 44.1502C559.641 44.5902 560.171 45.1502 560.771 45.6602C561.371 46.1702 561.951 46.6602 562.481 47.2402L564.111 49.0002C568.136 53.5133 571.023 58.9239 572.531 64.7802C573.996 70.3852 574.207 76.2441 573.151 81.9402C572.123 87.3394 569.948 92.4548 566.771 96.9402C561.083 105.037 552.515 110.653 542.821 112.64L539.561 113.17C538.491 113.27 537.421 113.3 536.371 113.37C534.331 113.47 532.286 113.386 530.261 113.12C526.603 112.661 523.029 111.677 519.651 110.2C516.806 108.954 514.121 107.373 511.651 105.49L511.831 105.31L511.961 105.47H511.761L494.371 109.6Z" fill="#0E1412"/>
<path d="M524.363 67.9999L529.363 67.9499C529.353 67.3791 529.459 66.8122 529.673 66.2832C529.887 65.7541 530.206 65.2736 530.61 64.8704C531.014 64.4672 531.496 64.1496 532.025 63.9364C532.555 63.7233 533.122 63.619 533.693 63.6299C534.536 63.5835 535.372 63.8052 536.082 64.2633C536.791 64.7213 537.338 65.3922 537.643 66.1799C537.915 66.8332 538.028 67.5415 537.974 68.247C537.92 68.9526 537.701 69.6354 537.333 70.2399C536.493 71.6499 534.643 72.9399 531.253 72.3799L531.363 83.6899H536.363L536.273 76.9999C538.303 76.3815 540.074 75.1145 541.314 73.3932C542.555 71.6719 543.198 69.5911 543.143 67.4699C543.073 60.1399 536.483 58.4699 533.663 58.5299C531.513 58.5799 524.183 59.1699 524.363 67.9999Z" fill="#FD6038"/>
<path d="M536.42 85.9771L531.391 86.0254L531.436 90.7252L536.466 90.6769L536.42 85.9771Z" fill="#FD6038"/>
</svg>
