<svg width="26" height="38" viewBox="0 0 26 38" fill="none" xmlns="http://www.w3.org/2000/svg">
<path d="M14.2 1H11.8C5.83532 1 1 5.83532 1 11.8V26.2C1 32.1647 5.83532 37 11.8 37H14.2C20.1647 37 25 32.1647 25 26.2V11.8C25 5.83532 20.1647 1 14.2 1Z" stroke="#0E1412" stroke-width="2" stroke-linecap="round" stroke-linejoin="round"/>
<path d="M15.3996 11.8C15.3996 12.4365 15.1468 13.047 14.6967 13.4971C14.2466 13.9471 13.6361 14.2 12.9996 14.2C12.3631 14.2 11.7526 13.9471 11.3026 13.4971C10.8525 13.047 10.5996 12.4365 10.5996 11.8V9.4C10.5996 8.76348 10.8525 8.15303 11.3026 7.70294C11.7526 7.25286 12.3631 7 12.9996 7C13.6361 7 14.2466 7.25286 14.6967 7.70294C15.1468 8.15303 15.3996 8.76348 15.3996 9.4V11.8Z" stroke="#0E1412" stroke-width="2" stroke-linecap="round" stroke-linejoin="round"/>
</svg>

