<svg width="60" height="60" viewBox="0 0 60 60" fill="none" xmlns="http://www.w3.org/2000/svg">
<path d="M17.4185 26.1288V27.0964H19.3542V26.1288C19.3542 23.9939 17.6181 22.2578 15.4832 22.2578C13.3482 22.2578 11.6122 23.9939 11.6122 26.1288V27.0964H13.5478V26.1288C13.5478 25.0616 14.4159 24.1931 15.4835 24.1931C16.5503 24.1931 17.4184 25.0616 17.4184 26.1288H17.4185Z" fill="#FD6038"/>
<path d="M29.0319 22.2578C26.8969 22.2578 25.1609 23.9939 25.1609 26.1288V27.0964H27.0965V26.1288C27.0965 25.0616 27.9646 24.1931 29.0322 24.1931C30.0994 24.1931 30.9678 25.0612 30.9678 26.1288V27.0964H32.9035V26.1288C32.9027 23.9939 31.1666 22.2578 29.0317 22.2578H29.0319Z" fill="#FD6038"/>
<path d="M29.0029 33.6356C28.3257 30.9261 25.9004 29.0322 23.1067 29.0322H21.4091C18.6155 29.0322 16.19 30.9261 15.5125 33.6356L15.2115 34.8385H17.5168C17.9668 37.0442 19.9209 38.7095 22.2579 38.7095C24.595 38.7095 26.5491 37.0442 26.999 34.8385H29.3043L29.0029 33.6356ZM21.4091 30.9676H23.1067C24.5623 30.9676 25.8715 31.7226 26.6139 32.9032H17.9022C18.6443 31.7225 19.9535 30.9676 21.409 30.9676H21.4091ZM22.2579 36.7742C20.9977 36.7742 19.9334 35.9623 19.5328 34.8385H24.982C24.5823 35.9623 23.5176 36.7742 22.2578 36.7742H22.2579Z" fill="#FD6038"/>
<path d="M45.4839 28.0644V29.032C45.4839 31.167 47.2199 32.903 49.3549 32.903C51.4898 32.903 53.2259 31.167 53.2259 29.032V19.3548H55.9811L56.9487 13.5482L60.0001 13.5486V3.87099H32.3818C30.7094 3.03685 28.8959 2.45348 26.9895 2.16087C26.6588 0.921219 25.5371 0 24.1937 0H20.3227C18.9796 0 17.8579 0.921187 17.5277 2.16087C10.3675 3.25738 4.51515 8.48448 2.60907 15.4842H1.93565C0.868409 15.4842 0 16.3522 0 17.4198V19.3555C0 20.4227 0.868034 21.2911 1.93565 21.2911H2.9284C2.314 22.1014 1.93565 23.1005 1.93565 24.1936C1.93565 26.8617 4.10617 29.0322 6.77425 29.0322H7.79128C8.16377 34.6376 11.7167 39.3841 16.6695 41.4587C16.4519 41.604 16.2522 41.7789 16.058 41.961L6.29631 43.5878C4.71808 43.8503 3.6474 45.3491 3.91065 46.9294C4.11866 48.1796 5.0963 49.1195 6.31045 49.3138L7.29274 54.7166C7.64598 56.6564 9.33264 58.0644 11.3052 58.0644C11.573 58.0644 11.8421 58.0385 12.1054 57.9849L17.6388 56.8787C19.5657 58.806 22.2263 60.0002 25.1615 60.0002H32.9034C34.1637 60.0002 35.2279 59.1882 35.6285 58.0645H38.7097C39.97 58.0645 41.0342 57.2526 41.4348 56.1288L52.2585 56.1293C54.3934 56.1293 56.1295 54.3932 56.1295 52.2583V42.5807C56.1295 40.4457 54.3934 38.7097 52.2585 38.7097H48.3875V44.5163H36.7742V50.3229H36.6089C35.92 50.3229 35.2755 50.5728 34.7536 51.011C34.2493 50.59 33.6097 50.3267 32.9032 50.3267H31.9343V49.3578C31.9343 46.0251 30.0501 43.1264 27.294 41.6623C32.5307 39.7162 36.3397 34.8429 36.7256 29.0333H37.7417C40.4098 29.0333 42.5804 26.8628 42.5804 24.1948C42.5804 23.1011 42.202 22.1026 41.5876 21.2914H42.5804C43.6476 21.2914 44.516 20.4233 44.516 19.3557V17.4201C44.516 16.3528 43.648 15.4844 42.5804 15.4844H41.9069C41.727 14.8244 41.5227 14.1761 41.275 13.5488H47.5663L48.5339 19.3554L51.2904 19.3558V29.0334C51.2904 30.1007 50.4224 30.9691 49.3548 30.9691C48.2875 30.9691 47.4191 30.1011 47.4191 29.0334V28.0658H45.4839V28.0644ZM50.3225 7.34178L48.7878 5.80706H51.8572L50.3225 7.34178ZM54.1935 6.20756V11.2128L51.6911 8.71L54.1935 6.20756ZM46.4515 6.20756L48.9543 8.70989L46.4515 11.2127L43.9492 8.70989L46.4515 6.20756ZM42.5805 7.34178L41.0458 5.80706H44.1152L42.5805 7.34178ZM44.1157 11.6133H41.0462L42.5805 10.0785L44.1157 11.6133ZM48.7877 11.6133L50.3224 10.0785L51.8575 11.6133H48.7877ZM58.0644 11.6133H56.1287L56.1291 5.80706H58.0648L58.0644 11.6133ZM38.3092 5.80706L41.2126 8.71043L39.6004 10.3226C38.4787 8.59204 37.0843 7.06396 35.4699 5.80706H38.3092ZM30.9678 5.32784C32.3758 5.96442 33.6736 6.80277 34.8388 7.79546V10.6457C34.8388 11.1789 34.4043 11.6133 33.8711 11.6133H31.9355C31.4023 11.6133 30.9678 11.1789 30.9678 10.6457L30.9678 5.32784ZM20.3225 1.9361H21.2902V3.87176H23.2258V1.9361H24.1935C24.7267 1.9361 25.1611 2.37054 25.1611 2.90374V15.4845H23.2254L23.2259 5.80732H21.2902V15.485H19.3546L19.355 2.90417C19.355 2.37096 19.7894 1.93653 20.3226 1.93653L20.3225 1.9361ZM9.67763 7.79556C10.8428 6.80282 12.1406 5.96577 13.5486 5.32794V10.6458C13.5486 11.179 13.1142 11.6134 12.581 11.6134H10.6453C10.1121 11.6134 9.67769 11.179 9.67769 10.6458L9.67763 7.79556ZM7.74197 9.73583V10.6457C7.74197 12.2462 9.04441 13.5491 10.6453 13.5491H12.581C14.1815 13.5491 15.4844 12.2466 15.4844 10.6457L15.484 4.60678C16.1151 4.41217 16.7596 4.25145 17.4196 4.13342V15.4842H4.61168C5.2696 13.3405 6.34687 11.3965 7.7423 9.73574L7.74197 9.73583ZM3.87099 24.1938C3.87099 22.5933 5.17342 21.2904 6.77436 21.2904H7.74199V27.097H6.77436C5.17353 27.097 3.87099 25.7946 3.87099 24.1937V24.1938ZM16.2632 55.1807L13.8186 55.6696L12.278 48.4784L14.5168 48.1055V49.3557C14.5168 51.5052 15.1621 53.5053 16.2633 55.1807H16.2632ZM6.61482 45.4985L14.7263 44.1467C14.6029 44.579 14.5167 45.0239 14.5167 45.4855V46.1426L6.93411 47.4066C6.39128 47.4945 5.90746 47.1308 5.82035 46.6122C5.73246 46.0857 6.08947 45.5856 6.61473 45.4985L6.61482 45.4985ZM9.19794 54.3717L8.24872 49.1506L10.3652 48.7973L11.9192 56.0497L11.7246 56.0882C10.5787 56.3167 9.40893 55.529 9.19796 54.3717L9.19794 54.3717ZM50.3228 40.6455H52.2585C53.3257 40.6455 54.1941 41.5136 54.1941 42.5812C54.1941 43.6484 53.3261 44.5168 52.2585 44.5168H50.3228V40.6455ZM38.7095 46.4517H52.2578C52.9664 46.4517 53.6214 46.2467 54.1935 45.9135L54.1931 52.2584C54.1931 53.3257 53.325 54.1941 52.2574 54.1941L41.6125 54.1937V53.226C41.6125 51.6255 40.3101 50.3227 38.7091 50.3227L38.7095 46.4517ZM36.6086 52.2584H38.7095C39.2427 52.2584 39.6772 52.6928 39.6772 53.226V55.1617C39.6772 55.6949 39.2427 56.1293 38.7095 56.1293H35.8062V53.2289C35.8062 53.0519 35.7848 52.8795 35.7538 52.7112L35.9233 52.5417C36.1062 52.3588 36.3503 52.2584 36.6085 52.2584L36.6086 52.2584ZM33.8709 53.229V57.097C33.8709 57.6303 33.4365 58.0647 32.9033 58.0647H25.1613C20.3596 58.0647 16.4517 54.1568 16.4517 49.3551V45.4863C16.4517 44.7111 16.7535 43.9812 17.3022 43.4338C17.8501 42.886 18.5787 42.5842 19.3546 42.5842C20.1298 42.5842 20.8597 42.886 21.4071 43.4346C21.9562 43.9813 22.2579 44.7112 22.2579 45.4862L22.2571 50.8932L20.6073 52.5423L21.9747 53.9117L23.6258 52.2626L32.9033 52.2622C33.4365 52.2614 33.8709 52.6958 33.8709 53.229L33.8709 53.229ZM29.9991 49.3571V50.326H24.1925L24.1933 45.4861C24.1933 44.4206 23.835 43.4181 23.2022 42.5828H23.2244C26.9593 42.5828 29.9991 45.6212 29.9991 49.3571H29.9991ZM22.258 40.6454C15.3213 40.6454 9.6772 35.0015 9.6772 28.0646V21.2902H34.8388V28.0646C34.8383 35.0013 29.1944 40.6454 22.258 40.6454ZM40.6449 24.1935C40.6449 25.794 39.3424 27.0969 37.7415 27.0969H36.7739V21.2902H37.7415C39.3423 21.2907 40.6449 22.5931 40.6449 24.1936V24.1935ZM42.5801 19.3549H1.93523L1.93439 17.4193L1.93523 17.4197H42.5812L42.5801 19.3549ZM27.0957 15.4839V4.13422C27.7557 4.25224 28.4003 4.41296 29.0314 4.60758V10.6453C29.0314 12.2458 30.3338 13.5487 31.9347 13.5487H33.8704C35.4709 13.5487 36.7738 12.2463 36.7738 10.6453V9.73544C38.1691 11.3962 39.2464 13.3403 39.9044 15.4839L27.0957 15.4839ZM49.5283 13.5487H54.9856L54.3402 17.4197H50.1729L49.5283 13.5487Z" fill="#FD6038"/>
</svg>
