<svg width="18" height="21" viewBox="0 0 18 21" fill="none" xmlns="http://www.w3.org/2000/svg">
<path fill-rule="evenodd" clip-rule="evenodd" d="M17.0347 8.03478C17.0347 9.9349 16.3751 11.681 15.2724 13.0565H15.277C15.277 13.0565 12.4846 16.7933 10.3214 19.4393C9.6312 20.2834 8.36879 20.2831 7.67905 19.4386C5.5227 16.7985 2.73385 13.0646 2.73385 13.0646L2.72735 13.0565C1.62466 11.681 0.965088 9.9349 0.965088 8.03478C0.965088 3.5973 4.56238 0 8.99987 0C13.4374 0 17.0347 3.5973 17.0347 8.03478ZM12 8C12 9.65685 10.6569 11 9 11C7.34315 11 6 9.65685 6 8C6 6.34315 7.34315 5 9 5C10.6569 5 12 6.34315 12 8Z" fill="#0E1412"/>
</svg>
