<svg width="60" height="60" viewBox="0 0 60 60" fill="none" xmlns="http://www.w3.org/2000/svg">
<path d="M45.0001 30V23C45.0001 22.4478 44.5528 22 44.0001 22H31C30.4473 22 30 22.4478 30 23V30C30 30.5523 30.4473 31 31 31H44.0001C44.5528 31 45.0001 30.5523 45.0001 30ZM43.0001 29H32V24H43.0001V29Z" fill="#FD6038"/>
<path d="M59.9647 48.2462L55.745 32.8164C55.6267 32.3856 55.2369 32.0852 54.7909 32.0802L49.9998 32.0276V19.0001H51.9998C52.3659 19.0001 52.7029 18.8001 52.8788 18.4782C53.0538 18.1563 53.0391 17.7644 52.8396 17.4568L41.8395 0.456699C41.6546 0.171875 41.3386 0 40.9997 0H12.9995C12.9589 0 12.9209 0.0111609 12.8812 0.0160711C12.8521 0.0196425 12.824 0.0218745 12.7955 0.0276778C12.6834 0.0513385 12.5758 0.0888393 12.4794 0.14777C12.4678 0.154913 12.4588 0.165627 12.4477 0.17277C12.3611 0.230806 12.2861 0.30357 12.2209 0.386611C12.2097 0.400897 12.1932 0.408039 12.1825 0.422772L0.182398 17.4228C-0.0323356 17.7282 -0.0595698 18.1278 0.111861 18.4595C0.283291 18.792 0.62526 19.0001 0.999366 19.0001H5.99941V40.0002C5.99941 40.5529 6.44674 41.0002 6.99942 41.0002H35.1757L38.7448 54.054C38.8609 54.4799 39.2431 54.7785 39.6841 54.7901L45.161 54.9299L46.1034 59.2151C46.2038 59.6732 46.6101 60.0004 47.0798 60.0004H55.3798C55.6856 60.0004 55.9745 59.8607 56.1642 59.6214C56.3535 59.3812 56.4231 59.0687 56.3535 58.7709L54.828 52.2981L59.5303 49.3575C59.904 49.1245 60.0808 48.6722 59.9647 48.2463L59.9647 48.2462ZM40.4559 2.00028L50.1623 17.0003H24.5438L14.8365 2.00028H40.4559ZM2.92873 17.0003L12.9632 2.78542L14.003 4.39252L6.1837 15.422C6.06361 15.5908 5.99932 15.793 5.99932 16.0002V17.0002L2.92873 17.0003ZM18.9997 39.0004H13.9997V28.0004H18.9997V39.0004ZM19.9997 26.0004H12.9997C12.447 26.0004 11.9997 26.4482 11.9997 27.0004V39.0004H7.99963V16.3192L15.1716 6.20304L23.16 18.5448C23.3444 18.8292 23.6609 19.0011 23.9997 19.0011H24.9997V39.0011H20.9997V27.0011C20.9997 26.4489 20.5524 26.0011 19.9997 26.0011L19.9997 26.0004ZM26.9998 39.0004V19.0003H48V32.0061L47.5125 32.0008C47.1826 32.0173 46.9 32.1414 46.7089 32.3883C46.5165 32.6374 46.4522 32.9615 46.5352 33.2642L48.9112 41.9499L45.0509 43.0035L42.675 34.3168C42.5919 34.0142 42.3714 33.7668 42.0803 33.6517C41.9611 33.6039 41.8353 33.5802 41.7102 33.5802C41.6915 33.5802 41.6732 33.5869 41.654 33.5878C41.6308 33.5892 41.6098 33.5941 41.587 33.5972C41.4491 33.6146 41.3134 33.6517 41.1906 33.7258L34.9709 37.5061C34.5892 37.7374 34.4075 38.1945 34.5267 38.6253L34.6285 39.0008L26.9998 39.0004ZM53.16 50.9833C52.7966 51.2101 52.6189 51.6436 52.7167 52.0606L54.1172 58.0008H47.8836L46.9461 53.7361C46.8475 53.287 46.4551 52.9629 45.9948 52.9509L40.4782 52.8102L36.9044 39.7382C36.904 39.7373 36.9044 39.7364 36.9044 39.7355L36.6544 38.8234L41.096 36.1243L43.3852 44.4944C43.4196 44.619 43.4794 44.7275 43.5522 44.8248C43.5736 44.8534 43.6004 44.8743 43.6245 44.9002C43.6834 44.9636 43.7459 45.0203 43.8187 45.0663C43.8509 45.0868 43.8834 45.102 43.9178 45.1185C43.9933 45.1551 44.0709 45.1815 44.154 45.1984C44.1919 45.2065 44.2281 45.2136 44.2674 45.2172C44.2951 45.2194 44.3209 45.2306 44.3491 45.2306C44.437 45.2306 44.525 45.219 44.6138 45.1953L50.404 43.6154C50.6598 43.5449 50.8777 43.377 51.0085 43.1467C51.1402 42.9163 51.1746 42.6427 51.1054 42.3869L48.8161 34.0177L48.988 34.0195H48.9889L54.0152 34.0721L57.8393 48.0562L53.16 50.9833Z" fill="#FD6038"/>
<path d="M32.1312 44.8419H27.8878C27.7392 44.8419 27.6017 44.8847 27.4727 44.9446C27.453 44.9535 27.4347 44.9638 27.4155 44.9736C27.3276 45.0214 27.2495 45.0807 27.1794 45.1526C27.1633 45.1687 27.1423 45.1754 27.1271 45.1923C27.12 45.2008 27.1182 45.2115 27.1111 45.22C27.0575 45.287 27.0169 45.3638 26.9816 45.4441C26.9619 45.4874 26.937 45.5272 26.924 45.5718L25.5258 49.7683C25.3508 50.2928 25.6343 50.8589 26.1575 51.033C26.2629 51.0682 26.3696 51.0848 26.474 51.0848C26.8928 51.0848 27.2825 50.82 27.4223 50.4013L28.2866 47.8083C29.0348 48.8865 29.4406 50.1606 29.4406 51.4981C29.4406 53.2334 28.7638 54.8651 27.5343 56.095C26.3048 57.3245 24.6732 58.0013 22.9387 58.0013C21.2043 58.0013 19.5717 57.3245 18.3418 56.095C15.8074 53.5606 15.8074 49.4369 18.3418 46.9025C19.3458 45.8985 20.6151 45.2627 22.0146 45.0627C22.5615 44.9846 22.9414 44.4779 22.8633 43.931C22.7852 43.3841 22.2802 43.0002 21.7316 43.0824C19.9004 43.344 18.2405 44.1761 16.928 45.4887C13.6137 48.803 13.6137 54.195 16.928 57.5093C18.5356 59.1164 20.67 60.0013 22.9388 60.0013C25.2076 60.0013 27.3419 59.1165 28.9487 57.5093C30.5562 55.903 31.4407 53.7682 31.4407 51.4985C31.4407 49.8191 30.9532 48.2137 30.0501 46.8423H32.1313C32.684 46.8423 33.1313 46.3949 33.1313 45.8423C33.1313 45.2891 32.684 44.8418 32.1313 44.8418L32.1312 44.8419Z" fill="#FD6038"/>
</svg>
