<svg width="58" height="62" viewBox="0 0 58 62" fill="none" xmlns="http://www.w3.org/2000/svg">
<path d="M55.1859 6.08027C44.36 5.55626 36.2748 3.69644 30.4835 0.393008C29.5554 -0.131003 28.4569 -0.131003 27.5289 0.393008C21.7374 3.69644 13.6632 5.55627 2.82654 6.08027C1.23713 6.1552 0 7.45948 0 9.0305C0 31.2122 -1.86e-06 52.1648 28.0082 61.8396C28.3177 61.9466 28.6587 62 29.0001 62C29.3415 62 29.6719 61.9466 29.9919 61.8396C57.9904 52.165 58.0001 31.2122 58.0001 9.0305C58.0001 7.44848 56.7631 6.15467 55.1736 6.08027H55.1859ZM29.3108 59.8192C29.1294 59.8831 28.9056 59.8831 28.7242 59.8192C2.15556 50.6362 2.15556 30.4207 2.14459 9.03074C2.14459 8.59264 2.49647 8.23948 2.94454 8.21849C14.1119 7.68398 22.5065 5.72775 28.5965 2.25353C28.7246 2.1786 28.8736 2.13613 29.0127 2.13613C29.1512 2.13613 29.3008 2.17908 29.4288 2.25353C35.5189 5.72787 43.9126 7.67348 55.0808 8.21849C55.5289 8.23996 55.8808 8.60314 55.8808 9.03074C55.8808 30.433 55.8808 50.6367 29.3121 59.8192H29.3108Z" fill="#FD6038"/>
<path d="M52.743 10.2168C42.9518 9.5539 35.3471 7.75806 29.5021 4.72183C29.1926 4.56147 28.8303 4.56147 28.5208 4.72183C22.6759 7.75806 15.0707 9.55388 5.27992 10.2168C4.71473 10.2597 4.28809 10.7193 4.28809 11.2858C4.38427 33.9598 6.13324 49.4171 28.6601 57.5208C28.7773 57.5638 28.8949 57.5848 29.023 57.5848C29.1511 57.5848 29.2682 57.5633 29.3858 57.5208C51.9124 49.4179 53.6616 33.9488 53.7579 11.2858C53.7579 10.7193 53.3208 10.2488 52.766 10.2168H52.743ZM29.0109 55.3828C8.39327 47.8143 6.55872 33.9916 6.42098 12.2803C15.7641 11.564 23.1769 9.78955 29.0109 6.87133C34.8452 9.78967 42.2477 11.5645 51.6008 12.2803C51.4623 33.9916 49.6276 47.8142 29.0109 55.3828Z" fill="#FD6038"/>
<path d="M22.6115 19.1006V21.6127C21.1287 21.7091 19.945 22.9385 19.945 24.4456V27.7916H17.0866C16.6495 26.5518 15.4762 25.6536 14.0787 25.6536C12.3188 25.6536 10.8789 27.0967 10.8789 28.8606C10.8789 30.6245 12.3188 32.0676 14.0787 32.0676C15.4653 32.0676 16.6385 31.1695 17.0866 29.9296H19.945V33.361C19.945 34.9325 21.2249 36.2153 22.7929 36.2153H23.678V39.5612H21.353C20.9159 38.3214 19.7426 37.4232 18.3451 37.4232C16.5851 37.4232 15.1453 38.8663 15.1453 40.6302C15.1453 42.3942 16.5851 43.8373 18.3451 43.8373C19.7316 43.8373 20.9049 42.9391 21.353 41.6992H23.678C24.8513 41.6992 25.8112 40.7371 25.8112 39.5612V36.2153H27.9444V41.8915C26.7074 42.3296 25.8112 43.5056 25.8112 44.9063C25.8112 46.6702 27.2511 48.1133 29.011 48.1133C30.771 48.1133 32.2108 46.6702 32.2108 44.9063C32.2108 43.5166 31.3147 42.3407 30.0776 41.8915V36.2153H32.2108V39.5612C32.2108 40.7371 33.1708 41.6992 34.344 41.6992H36.6691C37.1062 42.9391 38.2794 43.8373 39.677 43.8373C41.4369 43.8373 42.8768 42.3942 42.8768 40.6302C42.8768 38.8663 41.4369 37.4232 39.677 37.4232C38.2904 37.4232 37.1172 38.3214 36.6691 39.5612H34.344V36.2153H35.2292C36.7971 36.2153 38.0771 34.9325 38.0771 33.361V29.9296H40.9354C41.3725 31.1694 42.5458 32.0676 43.9434 32.0676C45.7033 32.0676 47.1431 30.6245 47.1431 28.8606C47.1431 27.0967 45.7033 25.6536 43.9434 25.6536C42.5568 25.6536 41.3835 26.5517 40.9354 27.7916H38.0771V24.4456C38.0771 22.9385 36.8933 21.7092 35.4106 21.6127V19.1006C35.4106 15.5623 32.5412 12.6865 29.011 12.6865C25.4807 12.6865 22.6114 15.5623 22.6114 19.1006H22.6115ZM14.0787 29.9296C13.4921 29.9296 13.0121 29.4486 13.0121 28.8606C13.0121 28.2726 13.4921 27.7916 14.0787 27.7916C14.6653 27.7916 15.1453 28.2726 15.1453 28.8606C15.1453 29.4486 14.6653 29.9296 14.0787 29.9296ZM18.3451 41.6887C17.7585 41.6887 17.2785 41.2077 17.2785 40.6197C17.2785 40.0318 17.7585 39.5507 18.3451 39.5507C18.9317 39.5507 19.4117 40.0318 19.4117 40.6197C19.4117 41.2077 18.9317 41.6887 18.3451 41.6887ZM29.0111 45.9648C28.4244 45.9648 27.9445 45.4837 27.9445 44.8958C27.9445 44.3078 28.4244 43.8268 29.0111 43.8268C29.5977 43.8268 30.0777 44.3078 30.0777 44.8958C30.0777 45.4837 29.5977 45.9648 29.0111 45.9648ZM39.677 39.5507C40.2637 39.5507 40.7436 40.0318 40.7436 40.6197C40.7436 41.2077 40.2637 41.6887 39.677 41.6887C39.0904 41.6887 38.6104 41.2077 38.6104 40.6197C38.6104 40.0318 39.0904 39.5507 39.677 39.5507ZM43.9434 27.7916C44.5301 27.7916 45.01 28.2726 45.01 28.8606C45.01 29.4486 44.5301 29.9296 43.9434 29.9296C43.3568 29.9296 42.8768 29.4486 42.8768 28.8606C42.8768 28.2726 43.3568 27.7916 43.9434 27.7916ZM35.9439 24.4456V33.3504C35.9439 33.7461 35.624 34.0668 35.2292 34.0668H22.7823C22.3876 34.0668 22.0676 33.7461 22.0676 33.3504V24.4456C22.0676 24.05 22.3876 23.7293 22.7823 23.7293H35.2292C35.624 23.7293 35.9439 24.05 35.9439 24.4456ZM33.2775 19.1006V21.5913H24.7447V19.1006C24.7447 16.7383 26.6541 14.8245 29.0111 14.8245C31.3681 14.8245 33.2775 16.7383 33.2775 19.1006Z" fill="#FD6038"/>
<path d="M29.0113 26.2314C27.934 26.2314 27.0591 27.1081 27.0591 28.1877C27.0591 28.872 27.411 29.481 27.9445 29.8232V30.6784C27.9445 31.2664 28.4245 31.7474 29.0113 31.7474C29.5981 31.7474 30.0781 31.2664 30.0781 30.6784V29.8232C30.6116 29.4705 30.9635 28.8716 30.9635 28.1877C30.9635 27.1082 30.0886 26.2314 29.0113 26.2314H29.0113Z" fill="#FD6038"/>
</svg>
