<svg width="60" height="60" viewBox="0 0 60 60" fill="none" xmlns="http://www.w3.org/2000/svg">
<path d="M58.0919 58.1286H52.555V32.3876L52.7364 32.5746C54.1884 34.0721 56.4579 33.9787 57.91 32.5746C59.3621 31.0771 59.3621 28.7367 57.91 27.2392L53.0994 22.2782V4.86743H54.4609C54.9147 4.86743 55.3685 4.49295 55.3685 3.93143C55.3685 3.36991 55.0054 2.99543 54.4609 2.99543L44.658 2.995C44.2042 2.995 43.7504 3.36948 43.7504 3.931C43.7504 4.49252 44.1135 4.867 44.658 4.867H46.0195V14.9764L32.5865 1.1235C31.8602 0.374527 30.9527 0 29.9544 0C28.9561 0 28.0485 0.374482 27.4128 1.1235L1.99863 27.3323C0.546542 28.8298 0.546542 31.1703 1.99863 32.6677C3.45072 34.1652 5.72021 34.0718 7.1723 32.6677L7.35365 32.4807V58.128H1.8168C1.36299 58.128 0.90918 58.5025 0.90918 59.064C0.90918 59.532 1.27231 60 1.8168 60H58.1834C58.6372 60 59.091 59.6255 59.091 59.064C59.0003 58.5025 58.6372 58.128 58.0927 58.128L58.0919 58.1286ZM47.8351 4.96084H51.375V20.5932L47.8351 16.8492V4.96084ZM5.90064 31.3572C5.17438 32.1062 3.99477 32.1062 3.17779 31.3572C2.45152 30.6082 2.45152 29.2977 3.17779 28.5492L28.592 2.3404C28.9551 1.96592 29.409 1.77889 29.9535 1.77889C30.498 1.77889 30.9518 1.96592 31.315 2.3404L46.2916 17.879C48.1974 19.8445 51.8284 23.589 56.639 28.55C57.3653 29.299 57.3653 30.5155 56.639 31.358C55.9127 32.1069 54.642 32.1069 53.9162 31.358L30.589 7.20774C30.2259 6.83326 29.6814 6.83326 29.3183 7.20774L5.90064 31.3572ZM9.07729 58.1286V30.6081L29.9536 9.0791L50.8299 30.6081V58.1275L9.07729 58.1286Z" fill="#FD6038"/>
<path d="M42.6616 40.1565C42.7523 39.3141 42.7523 38.4716 42.6616 37.6291L44.4769 36.1316C44.7493 35.8506 44.9307 35.4766 44.7493 35.1021L43.0248 30.7962C42.8434 30.4217 42.4803 30.2347 42.1171 30.2347L39.8481 30.5157C39.3036 29.8606 38.7586 29.2987 38.1235 28.7372L38.396 26.3972C38.396 26.0227 38.2146 25.6482 37.8515 25.4612L33.6761 23.6827C33.313 23.4957 32.8592 23.6827 32.6778 23.9637L31.3163 25.8357C30.4994 25.7422 29.6825 25.7422 28.8655 25.8357L27.4134 23.9637C27.141 23.6827 26.7783 23.4957 26.4151 23.6827L22.2398 25.4612C21.8767 25.6482 21.6953 26.0227 21.6953 26.3972L21.9678 28.7372C21.3326 29.2987 20.7877 29.8607 20.2432 30.5157L17.9741 30.2347C17.611 30.2347 17.2479 30.4217 17.0665 30.7962L15.342 35.1021C15.1606 35.4766 15.342 35.9446 15.6144 36.1316L17.4297 37.6291C17.2467 38.659 17.2467 39.5016 17.2467 40.2501L15.4314 41.7476C15.1589 42.0286 14.9776 42.4026 15.1589 42.7771L16.8835 47.083C17.0648 47.4575 17.428 47.6445 17.7911 47.6445L20.0602 47.3635C20.6047 48.0186 21.1496 48.5805 21.7847 49.142L21.6034 51.4829C21.6034 51.8574 21.7847 52.2319 22.1479 52.4189L26.3232 54.1974C26.4139 54.1974 26.5046 54.2909 26.6864 54.2909C26.9588 54.2909 27.2308 54.1974 27.4126 53.9164L28.8647 52.0444C29.6817 52.1379 30.4985 52.1379 31.3155 52.0444L32.7676 53.9164C33.0401 54.1974 33.4028 54.3844 33.7659 54.1974L38.1227 52.3254C38.4858 52.1383 38.7579 51.7639 38.6672 51.2959C38.5765 50.8279 38.3947 49.7984 38.2134 49.0494C38.8485 48.4879 39.3934 47.9259 39.9379 47.2709L42.207 47.5519C42.5701 47.6454 42.9333 47.3649 43.1146 46.9904L44.8392 42.6845C45.0205 42.31 44.8392 41.842 44.5667 41.655L42.6616 40.1565ZM41.6629 45.6794L39.5751 45.3984C39.3027 45.3984 38.94 45.4919 38.7582 45.7729C38.2137 46.6154 37.4874 47.2704 36.6705 47.9259C36.398 48.113 36.3073 48.3939 36.3073 48.7684C36.398 49.2364 36.5798 50.1725 36.6705 50.9214L33.5844 52.2315L32.3141 50.5469C32.1327 50.2659 31.8603 50.1724 31.4971 50.1724C30.4988 50.3594 29.5001 50.3594 28.5018 50.1724C28.2294 50.1724 27.8667 50.2659 27.6849 50.5469L26.4141 52.2318L23.4188 51.0149L23.6913 48.8619C23.6913 48.5809 23.6006 48.2068 23.3281 48.0194C22.5112 47.3643 21.7849 46.7089 21.2404 45.8664C21.059 45.5854 20.7866 45.4919 20.4234 45.4919L18.3357 45.7728L17.0649 42.7774L18.6988 41.3734C18.9712 41.1864 19.0619 40.8119 19.0619 40.5309C18.9712 39.5949 18.8806 38.5654 19.0619 37.4419C19.0619 37.1609 18.9712 36.7869 18.6988 36.5994L17.0649 35.2889L18.245 32.2L20.3327 32.4809C20.6052 32.4809 20.9679 32.3874 21.1497 32.1065C21.7848 31.264 22.4204 30.515 23.2374 29.9535C23.5099 29.7664 23.6005 29.4855 23.6005 29.111L23.3281 26.958L26.2327 25.6475L27.5942 27.3324C27.7755 27.6134 28.048 27.7069 28.4111 27.7069C29.4094 27.6133 30.4081 27.6133 31.4064 27.7069C31.6789 27.7069 32.0416 27.6133 32.2234 27.3324L33.4941 25.6475L36.4895 26.8644L36.217 29.0174C36.217 29.2984 36.3077 29.6724 36.5801 29.8599C37.3971 30.5149 38.1234 31.1704 38.6679 32.0129C38.8492 32.2939 39.1217 32.3874 39.4848 32.3874L41.5725 32.1064L42.8433 35.1018L41.2095 36.5059C40.937 36.6929 40.8463 37.0674 40.8463 37.3484C40.937 38.3779 41.0277 39.3138 40.8463 40.3438C40.8463 40.6248 40.937 40.9988 41.2095 41.1863L42.8433 42.4968L41.6629 45.6794Z" fill="#FD6038"/>
<path d="M29.9541 33.5107C27.0494 33.5107 24.5986 35.9446 24.5986 38.9397C24.5986 41.9351 26.9587 44.3687 29.9541 44.3687C32.8587 44.3687 35.2184 41.9348 35.2184 38.9397C35.3095 35.9447 32.8587 33.5107 29.9541 33.5107ZM29.9541 42.5907C27.957 42.5907 26.4142 40.9057 26.4142 38.9402C26.4142 36.8807 28.0481 35.2897 29.9541 35.2897C31.9511 35.2897 33.4939 36.9746 33.4939 38.9402C33.4939 40.9992 31.9511 42.5907 29.9541 42.5907Z" fill="#FD6038"/>
</svg>
