<svg width="63" height="49" viewBox="0 0 63 49" fill="none" xmlns="http://www.w3.org/2000/svg">
<path d="M16.6364 28.4238H11.9363C11.1968 28.4238 10.5972 29.0265 10.5972 29.7697C10.5972 30.5129 11.1968 31.1155 11.9363 31.1155H15.2973V34.4933C15.2973 35.2371 15.8969 35.8392 16.6364 35.8392C17.3766 35.8392 17.9756 35.2371 17.9756 34.4933V29.7697C17.9756 29.0265 17.3766 28.4238 16.6364 28.4238Z" fill="#FD6038"/>
<path d="M16.6364 37.8711H11.9363C11.1968 37.8711 10.5972 38.4737 10.5972 39.2169C10.5972 39.9601 11.1968 40.5628 11.9363 40.5628H15.2973V43.9406C15.2973 44.6838 15.8969 45.2864 16.6364 45.2864C17.3766 45.2864 17.9756 44.6838 17.9756 43.9406V39.2169C17.9756 38.4737 17.3766 37.8711 16.6364 37.8711Z" fill="#FD6038"/>
<path d="M21.3374 31.1155H24.6984V34.4933C24.6984 35.2371 25.2981 35.8392 26.0376 35.8392C26.7771 35.8392 27.3767 35.2371 27.3767 34.4933V29.7697C27.3767 29.4128 27.2356 29.0703 26.9845 28.818C26.7334 28.5656 26.3927 28.4238 26.0376 28.4238H21.3374C20.5979 28.4238 19.9983 29.0265 19.9983 29.7697C19.9983 30.5129 20.5979 31.1155 21.3374 31.1155Z" fill="#FD6038"/>
<path d="M16.6364 18.9756H11.9363C11.1968 18.9756 10.5972 19.5782 10.5972 20.3214C10.5972 21.0646 11.1968 21.6673 11.9363 21.6673H15.2973V25.0457C15.2973 25.7889 15.8969 26.3915 16.6364 26.3915C17.3766 26.3915 17.9756 25.7889 17.9756 25.0457V20.3214C17.9756 19.5782 17.3766 18.9756 16.6364 18.9756Z" fill="#FD6038"/>
<path d="M21.3374 21.6673H24.6984V25.0457C24.6984 25.7889 25.2981 26.3915 26.0376 26.3915C26.7771 26.3915 27.3767 25.7889 27.3767 25.0457V20.3214C27.3767 19.9645 27.2356 19.6221 26.9845 19.3697C26.7334 19.1174 26.3927 18.9756 26.0376 18.9756H21.3374C20.5979 18.9756 19.9983 19.5782 19.9983 20.3214C19.9983 21.0646 20.5979 21.6673 21.3374 21.6673Z" fill="#FD6038"/>
<path d="M40.861 28.4238H36.2141C35.4746 28.4238 34.875 29.0265 34.875 29.7697C34.875 30.5129 35.4746 31.1155 36.2141 31.1155H39.5219V34.4933C39.5219 35.2371 40.1215 35.8392 40.861 35.8392C41.6005 35.8392 42.2002 35.2371 42.2002 34.4933V29.7697C42.2002 29.4128 42.0591 29.0703 41.808 28.818C41.5569 28.5656 41.2161 28.4238 40.861 28.4238Z" fill="#FD6038"/>
<path d="M45.6148 31.1155H48.9758V34.4933C48.9758 35.2371 49.5754 35.8392 50.3149 35.8392C51.055 35.8392 51.654 35.2371 51.654 34.4933V29.7697C51.654 29.4128 51.513 29.0703 51.2619 28.818C51.0108 28.5656 50.67 28.4238 50.3149 28.4238H45.6148C44.8753 28.4238 44.2756 29.0265 44.2756 29.7697C44.2756 30.5129 44.8753 31.1155 45.6148 31.1155Z" fill="#FD6038"/>
<path d="M45.6148 40.5628H48.9758V43.4432V43.4426C48.9758 44.1864 49.5754 44.7884 50.3149 44.7884C51.055 44.7884 51.654 44.1864 51.654 43.4426V39.2169C51.654 38.86 51.513 38.5176 51.2619 38.2652C51.0108 38.0129 50.67 37.8711 50.3149 37.8711H45.6148C44.8753 37.8711 44.2756 38.4737 44.2756 39.2169C44.2756 39.9601 44.8753 40.5628 45.6148 40.5628V40.5628Z" fill="#FD6038"/>
<path d="M40.861 18.9756H36.2141C35.4746 18.9756 34.875 19.5782 34.875 20.3214C34.875 21.0646 35.4746 21.6673 36.2141 21.6673H39.5219V25.0457C39.5219 25.7889 40.1215 26.3915 40.861 26.3915C41.6005 26.3915 42.2002 25.7889 42.2002 25.0457V20.3214C42.2002 19.9645 42.0591 19.6221 41.808 19.3697C41.5569 19.1174 41.2161 18.9756 40.861 18.9756Z" fill="#FD6038"/>
<path d="M45.6148 21.6673H48.9758V25.0457C48.9758 25.7889 49.5754 26.3915 50.3149 26.3915C51.055 26.3915 51.654 25.7889 51.654 25.0457V20.3214C51.654 19.9645 51.513 19.6221 51.2619 19.3697C51.0108 19.1174 50.67 18.9756 50.3149 18.9756H45.6148C44.8753 18.9756 44.2756 19.5782 44.2756 20.3214C44.2756 21.0646 44.8753 21.6673 45.6148 21.6673Z" fill="#FD6038"/>
<path d="M62.4757 14.7089L44.2635 0.295154C43.7763 -0.0911709 43.0894 -0.0911709 42.6027 0.295154L31.2869 9.21798L19.9843 0.295154C19.4952 -0.0983846 18.8 -0.0983846 18.3103 0.295154L0.498983 14.7227C-0.0779166 15.1907 -0.1676 16.0403 0.298113 16.6201C0.764423 17.1999 1.60975 17.2906 2.18668 16.822L19.1669 3.10826L30.4695 12.0311C30.9532 12.4102 31.6323 12.4102 32.1166 12.0311L43.4324 3.10826L60.8412 16.8358C61.0785 17.0209 61.3708 17.12 61.6715 17.1182C62.0787 17.1164 62.4631 16.9283 62.716 16.6069C62.936 16.3239 63.0346 15.964 62.9892 15.6071C62.9437 15.2508 62.759 14.9276 62.475 14.7089L62.4757 14.7089Z" fill="#FD6038"/>
<path d="M59.4085 46.3089H56.931V16.3636C56.9334 15.949 56.7457 15.5567 56.4223 15.3001L44.2631 5.67744C43.7758 5.29111 43.0889 5.29111 42.6022 5.67744L31.2865 14.6003L19.9838 5.67744C19.4972 5.29111 18.8103 5.29111 18.3236 5.67744L6.19135 15.26H6.19075C5.86255 15.5141 5.66945 15.9064 5.66884 16.3228V46.3081H3.16458C2.42507 46.3081 1.82544 46.9101 1.82544 47.6539C1.82544 48.3971 2.42507 48.9998 3.16458 48.9998H59.4083C60.1478 48.9998 60.7474 48.3971 60.7474 47.6539C60.7474 46.9101 60.1478 46.3081 59.4083 46.3081L59.4085 46.3089ZM29.9475 46.3089H27.3762V39.2162C27.3762 38.8593 27.2351 38.5168 26.984 38.2645C26.7329 38.0122 26.3922 37.8704 26.0371 37.8704H21.3369C20.5974 37.8704 19.9978 38.473 19.9978 39.2162C19.9978 39.9594 20.5974 40.562 21.3369 40.562H24.6979V46.3089H8.3467V17.0096L19.1536 8.49049L29.9467 17.0096L29.9475 46.3089ZM54.2264 46.3089H42.2011V39.2162C42.2011 38.8593 42.0601 38.5168 41.809 38.2645C41.5579 38.0122 41.2171 37.8704 40.862 37.8704H36.2151C35.4756 37.8704 34.876 38.473 34.876 39.2162C34.876 39.9594 35.4756 40.562 36.2151 40.562H39.5229V46.3089H32.6264V17.0096L43.4333 8.49049L54.2534 17.0096L54.2264 46.3089Z" fill="#FD6038"/>
</svg>
