<svg width="20" height="20" viewBox="0 0 20 20" fill="none" xmlns="http://www.w3.org/2000/svg">
<path fill-rule="evenodd" clip-rule="evenodd" d="M3 0C1.34315 0 0 1.34315 0 3V17C0 18.6569 1.34315 20 3 20H17C18.6569 20 20 18.6569 20 17V7C20 5.69378 19.1652 4.58254 18 4.17071V3C18 1.34315 16.6569 0 15 0H3ZM3 2C2.44772 2 2 2.44772 2 3C2 3.55228 2.44772 4 3 4H16V3C16 2.44772 15.5523 2 15 2H3ZM15 10C13.8954 10 13 10.8954 13 12C13 13.1046 13.8954 14 15 14H17C17.5523 14 18 13.5523 18 13V11C18 10.4477 17.5523 10 17 10H15Z" fill="#0E1412"/>
</svg>
